<?xml version="1.0" encoding="UTF-8"?>
<svg version="1.1" xmlns="http://www.w3.org/2000/svg" width="320" height="320">
<path d="M0 0 C2.13377668 1.2011213 4.26791948 2.40159236 6.40234375 3.6015625 C13.63187499 7.68205016 20.81865346 11.8354703 28 16 C29.11197754 16.64404785 30.22395508 17.2880957 31.36962891 17.95166016 C41.40976746 23.77200843 51.43201316 29.62033439 61.36938477 35.61474609 C67.56298132 39.34943297 73.79274384 43.02231686 80.02148438 46.69799805 C85.34810696 49.84170525 90.67229364 52.98944995 95.9921875 56.14453125 C96.58539795 56.49630936 97.1786084 56.84808746 97.78979492 57.21052551 C100.68082335 58.92504633 103.57155466 60.64006424 106.46191406 62.35571289 C113.62275026 66.60279597 120.80274522 70.8149476 128 75 C123.74522542 60.6474885 118.37484783 49.21414907 107 39 C108.33210182 35.00369453 109.97716312 34.56103112 113.59765625 32.48046875 C114.1746225 32.14543335 114.75158875 31.81039795 115.34603882 31.46520996 C117.24673212 30.36409423 119.15445506 29.27581863 121.0625 28.1875 C122.38794413 27.42313608 123.71289086 26.65790903 125.03735352 25.8918457 C127.73259907 24.3340815 130.43034441 22.78078051 133.12988281 21.23046875 C136.59628192 19.2368347 140.04706093 17.2177216 143.4921875 15.1875 C184.7545675 -9.1218086 184.7545675 -9.1218086 199 -8 C202.30369242 -7.08257174 205.06624655 -5.7565925 208 -4 C209.010625 -3.4225 210.02125 -2.845 211.0625 -2.25 C220.45008756 4.9404926 227.12366401 13.52060184 229.71484375 25.23046875 C230.41668094 35.14238 225.7662112 42.73201576 221 51 C219.90877673 52.92703948 218.81763634 54.85412591 217.7265625 56.78125 C212.77495061 65.46730648 207.72107317 74.09302036 202.63511658 82.70088196 C201.49711394 84.62717938 200.36064321 86.5543743 199.22436523 88.48168945 C197.78833405 90.91735726 196.34578137 93.34897185 194.89868164 95.77807617 C184.88841926 112.72028524 176.15767752 128.28543103 181.125 148.625 C184.92226165 160.58637419 191.98638779 171.17604688 198.3671875 181.8828125 C204.07324329 191.46737276 209.64586292 201.1269476 215.16894531 210.81787109 C216.95620092 213.92388303 218.782885 217.00363238 220.6171875 220.08203125 C231.61257803 238.84489443 231.61257803 238.84489443 228.30859375 251.6875 C224.64902529 262.45286732 216.5373803 271.01958568 206.56640625 276.28515625 C200.39474712 279.11256659 194.89281713 280.74772862 188 280 C184.6328125 278.7421875 184.6328125 278.7421875 181.125 276.875 C180.46137451 276.52663086 179.79774902 276.17826172 179.11401367 275.81933594 C177.59865975 275.01930751 176.08777623 274.21077559 174.58056641 273.39550781 C171.70149953 271.83857817 168.81011807 270.30592202 165.91796875 268.7734375 C134.72022717 252.1750138 104.39846675 234.00551674 74 216 C72.83871111 215.31232596 71.67741518 214.62466379 70.51611328 213.93701172 C66.82300064 211.75008215 63.13017344 209.56267108 59.4375 207.375 C58.84942566 207.02662079 58.26135132 206.67824158 57.65545654 206.31930542 C55.97723606 205.32501746 54.29916228 204.33048189 52.62109375 203.3359375 C51.6561499 202.76407715 50.69120605 202.1922168 49.69702148 201.60302734 C47.12715897 200.07557941 44.56228989 198.54011062 42 197 C46.03956246 211.83654968 51.47150669 222.41260819 63 233 C61.77262189 236.68213432 60.86361143 236.95055425 57.56640625 238.828125 C56.62079834 239.37283447 55.67519043 239.91754395 54.70092773 240.47875977 C53.14740601 241.35552368 53.14740601 241.35552368 51.5625 242.25 C49.95387085 243.17220337 49.95387085 243.17220337 48.31274414 244.11303711 C46.03373297 245.4191767 43.75266326 246.72172993 41.46972656 248.02099609 C38.11517439 249.93430878 34.77063759 251.86383162 31.4296875 253.80078125 C20.70820418 260.01647225 9.96139533 266.18809199 -0.8125 272.3125 C-2.24444702 273.13053101 -2.24444702 273.13053101 -3.70532227 273.96508789 C-4.59276123 274.4677417 -5.4802002 274.97039551 -6.39453125 275.48828125 C-7.16643799 275.92696533 -7.93834473 276.36564941 -8.73364258 276.81762695 C-16.17961499 280.702238 -23.48771802 281.18007186 -31.71875 279.41796875 C-42.62828994 275.63760602 -51.40816678 265.9209123 -57.09375 256.11328125 C-60.35750327 248.90582612 -60.39409254 240.80549585 -57.69921875 233.44921875 C-55.71562466 229.16125507 -53.36873157 225.0839911 -51 221 C-50.50129395 220.12972168 -50.00258789 219.25944336 -49.48876953 218.36279297 C-46.62468331 213.37387966 -43.72507281 208.40696798 -40.80078125 203.453125 C-34.99196055 193.61237033 -29.31006958 183.69826508 -23.61230469 173.79296875 C-22.2117382 171.36679059 -20.80106404 168.94711385 -19.3828125 166.53125 C-11.39213764 152.87534903 -7.19327736 139.31004057 -11.125 123.375 C-14.61272438 112.61664731 -20.68503525 102.94004294 -26.5 93.3125 C-33.72519336 81.25909787 -40.64800387 69.05425447 -47.46191406 56.76318359 C-48.90828693 54.16476325 -50.36802351 51.5745811 -51.8359375 48.98828125 C-52.2594751 48.24151123 -52.6830127 47.49474121 -53.11938477 46.7253418 C-53.8861949 45.37546098 -54.65476628 44.0265783 -55.42553711 42.67895508 C-59.6536029 35.21869449 -60.27848516 27.68396589 -58.38671875 19.2734375 C-54.18828568 7.62139857 -45.62291958 -0.18080343 -35.04296875 -6.09375 C-22.19317164 -11.93702616 -11.15476891 -6.40128029 0 0 Z M76.55664062 122.79882812 C75.77482422 123.58708984 74.99300781 124.37535156 74.1875 125.1875 C72.98577148 126.34088867 72.98577148 126.34088867 71.75976562 127.51757812 C71.00759766 128.26845703 70.25542969 129.01933594 69.48046875 129.79296875 C68.78848389 130.4789917 68.09649902 131.16501465 67.38354492 131.87182617 C65.76021522 133.92816455 65.76021522 133.92816455 66.06860352 136.51147461 C67.77434296 141.06890637 71.34849649 144.0034393 74.75 147.375 C75.46671875 148.12394531 76.1834375 148.87289062 76.921875 149.64453125 C77.97375 150.69833984 77.97375 150.69833984 79.046875 151.7734375 C79.68463867 152.41716309 80.32240234 153.06088867 80.97949219 153.72412109 C82.95384411 155.23567757 82.95384411 155.23567757 85.49560547 154.91552734 C90.07154251 153.24270965 93.00109506 149.65386857 96.375 146.25 C97.12394531 145.53328125 97.87289062 144.8165625 98.64453125 144.078125 C99.34707031 143.376875 100.04960937 142.675625 100.7734375 141.953125 C101.41716309 141.31536133 102.06088867 140.67759766 102.72412109 140.02050781 C104.23550486 138.04586883 104.23550486 138.04586883 103.91772461 135.50219727 C102.86966853 132.64464826 101.68184225 131.1656794 99.54296875 129.01171875 C98.84236328 128.30595703 98.14175781 127.60019531 97.41992188 126.87304688 C96.68322266 126.15181641 95.94652344 125.43058594 95.1875 124.6875 C94.46240234 123.94693359 93.73730469 123.20636719 92.99023438 122.44335938 C92.28576172 121.74404297 91.58128906 121.04472656 90.85546875 120.32421875 C90.21246826 119.68572998 89.56946777 119.04724121 88.90698242 118.3894043 C83.52696011 114.4695852 80.26292605 119.16181907 76.55664062 122.79882812 Z " fill="#FF6849" transform="translate(75,24)"/>
</svg>
