<?xml version="1.0" encoding="UTF-8"?>
<svg version="1.1" xmlns="http://www.w3.org/2000/svg" width="200" height="200">
<path d="M0 0 C66 0 132 0 200 0 C200 66 200 132 200 200 C134 200 68 200 0 200 C0 134 0 68 0 0 Z " fill="#181937" transform="translate(0,0)"/>
<path d="M0 0 C1.98 0 3.96 0 6 0 C6 4.29 6 8.58 6 13 C10.62 13 15.24 13 20 13 C20 14.98 20 16.96 20 19 C21.98 19 23.96 19 26 19 C26 25.6 26 32.2 26 39 C24.02 39 22.04 39 20 39 C20 40.98 20 42.96 20 45 C13.4 45 6.8 45 0 45 C0 30.15 0 15.3 0 0 Z " fill="#C4D100" transform="translate(151,78)"/>
<path d="M0 0 C2.31 0 4.62 0 7 0 C7 6.6 7 13.2 7 20 C10.96 20 14.92 20 19 20 C19 13.4 19 6.8 19 0 C21.31 0 23.62 0 26 0 C26 15.18 26 30.36 26 46 C23.69 46 21.38 46 19 46 C19 39.73 19 33.46 19 27 C15.04 27 11.08 27 7 27 C7 33.27 7 39.54 7 46 C4.69 46 2.38 46 0 46 C0 30.82 0 15.64 0 0 Z " fill="#B6C204" transform="translate(87,77)"/>
<path d="M0 0 C2.31 0 4.62 0 7 0 C7 8.58 7 17.16 7 26 C10.96 26 14.92 26 19 26 C19 17.42 19 8.84 19 0 C21.31 0 23.62 0 26 0 C26 10.89 26 21.78 26 33 C19.4 33 12.8 33 6 33 C6 31.02 6 29.04 6 27 C4.02 27 2.04 27 0 27 C0 18.09 0 9.18 0 0 Z " fill="#ABB608" transform="translate(119,90)"/>
<path d="M0 0 C1.98 0 3.96 0 6 0 C6 14.52 6 29.04 6 44 C-0.27 44 -6.54 44 -13 44 C-13 42.02 -13 40.04 -13 38 C-8.71 38 -4.42 38 0 38 C0 31.73 0 25.46 0 19 C-4.29 19 -8.58 19 -13 19 C-13 17.02 -13 15.04 -13 13 C-8.71 13 -4.42 13 0 13 C0 8.71 0 4.42 0 0 Z " fill="#58BFD3" transform="translate(43,78)"/>
<path d="M0 0 C2.31 0 4.62 0 7 0 C7 4.29 7 8.58 7 13 C8.98 13 10.96 13 13 13 C13 15.31 13 17.62 13 20 C11.02 20 9.04 20 7 20 C7 26.27 7 32.54 7 39 C8.98 39 10.96 39 13 39 C13 41.31 13 43.62 13 46 C10.69 46 8.38 46 6 46 C6 43.69 6 41.38 6 39 C4.02 39 2.04 39 0 39 C0 26.13 0 13.26 0 0 Z " fill="#54AFC0" transform="translate(68,77)"/>
<path d="M0 0 C1.98 0 3.96 0 6 0 C6 14.52 6 29.04 6 44 C4.02 44 2.04 44 0 44 C0 29.48 0 14.96 0 0 Z " fill="#59C1D5" transform="translate(56,78)"/>
<path d="M0 0 C4.29 0 8.58 0 13 0 C13 6.27 13 12.54 13 19 C8.71 19 4.42 19 0 19 C0 12.73 0 6.46 0 0 Z " fill="#1E1F35" transform="translate(157,97)"/>
<path d="M0 0 C0.33 0 0.66 0 1 0 C1 1.98 1 3.96 1 6 C2.98 6 4.96 6 7 6 C7 12.6 7 19.2 7 26 C5.02 26 3.04 26 1 26 C1 27.98 1 29.96 1 32 C-5.6 32 -12.2 32 -19 32 C-19 31.67 -19 31.34 -19 31 C-12.73 31 -6.46 31 0 31 C0 20.77 0 10.54 0 0 Z " fill="#A5B00A" transform="translate(170,91)"/>
<path d="M0 0 C1.98 0 3.96 0 6 0 C6 8.25 6 16.5 6 25 C4.02 25 2.04 25 0 25 C0 16.75 0 8.5 0 0 Z " fill="#C0CD01" transform="translate(119,91)"/>
<path d="M0 0 C1.98 0 3.96 0 6 0 C6 6.27 6 12.54 6 19 C4.02 19 2.04 19 0 19 C0 12.73 0 6.46 0 0 Z " fill="#59C1D5" transform="translate(24,97)"/>
<path d="M0 0 C1.98 0 3.96 0 6 0 C6 1.98 6 3.96 6 6 C4.02 6 2.04 6 0 6 C0 4.02 0 2.04 0 0 Z " fill="#BFCC02" transform="translate(75,116)"/>
</svg>
