<?xml version="1.0" encoding="UTF-8"?>
<svg version="1.1" xmlns="http://www.w3.org/2000/svg" width="1280" height="985">
<path d="M0 0 C0.57556641 0.39155273 1.15113281 0.78310547 1.74414062 1.18652344 C10.63465427 7.26873261 18.90276447 13.90307315 27 21 C28.22396484 22.05574219 28.22396484 22.05574219 29.47265625 23.1328125 C41.2424668 33.46823879 52.44839091 44.57205408 62 57 C62.78375 57.97839844 63.5675 58.95679687 64.375 59.96484375 C110.71832784 118.18125558 129.29924261 193.64245803 121 267 C114.02261443 323.41948543 89.43196603 377.83218925 50.46875 419.34375 C48.48747998 421.47549623 46.60792973 423.63790094 44.75 425.875 C35.16018065 436.88383796 23.69184961 446.32160938 12 455 C11.36400879 455.47646973 10.72801758 455.95293945 10.07275391 456.44384766 C-28.90172239 485.45722405 -74.86343124 503.12733861 -123 509 C-123.79341797 509.1016748 -124.58683594 509.20334961 -125.40429688 509.30810547 C-150.55587203 512.08348581 -178.12681546 511.59914506 -203 507 C-204.04188477 506.81195801 -205.08376953 506.62391602 -206.15722656 506.43017578 C-231.69211279 501.66371424 -256.73232928 493.58242645 -280 482 C-280.72928711 481.64083496 -281.45857422 481.28166992 -282.20996094 480.91162109 C-312.69402012 465.76481168 -343.28474948 443.42517929 -365 417 C-365.79148437 416.09636719 -366.58296875 415.19273437 -367.3984375 414.26171875 C-379.05801789 400.91608203 -389.40625843 386.50305376 -398 371 C-398.45729492 370.17967285 -398.91458984 369.3593457 -399.38574219 368.51416016 C-435.77894964 302.62494178 -444.35859433 225.69885798 -423.94873047 153.25585938 C-413.44423264 117.20645562 -396.01139149 83.87445812 -372 55 C-371.59120605 54.50097168 -371.18241211 54.00194336 -370.76123047 53.48779297 C-359.19637449 39.40495437 -346.49603171 26.08634684 -332 15 C-330.73866549 13.99985436 -329.47832541 12.99845388 -328.21875 11.99609375 C-286.9262099 -20.57891576 -236.42466024 -41.02370775 -184 -46 C-182.97648438 -46.11085938 -181.95296875 -46.22171875 -180.8984375 -46.3359375 C-117.86148815 -52.12344898 -52.2886544 -35.84548945 0 0 Z " fill="#000000" transform="translate(796,63)"/>
<path d="M0 0 C23.02785525 19.18440437 41.87237521 45.5205252 44.73828125 76.28125 C45.34764881 91.44512728 45.67964642 106.53762474 41.73828125 121.28125 C41.52171875 122.1784375 41.30515625 123.075625 41.08203125 124 C39.1881616 131.12455726 35.98999348 137.68994142 32.73828125 144.28125 C32.05958984 145.67537109 32.05958984 145.67537109 31.3671875 147.09765625 C18.27646918 172.57449331 -5.58291171 192.2292444 -32.6171875 201.2277832 C-44.41063747 205.01071929 -55.56457931 207.6618027 -68.01171875 207.53125 C-68.96908936 207.52375732 -69.92645996 207.51626465 -70.9128418 207.50854492 C-103.20100984 207.0232328 -130.94954523 194.06354074 -153.95703125 171.65625 C-164.99428751 160.0308014 -172.40138422 147.08877977 -178.26171875 132.28125 C-178.86113281 130.90259766 -178.86113281 130.90259766 -179.47265625 129.49609375 C-189.9221429 104.07948525 -187.1843451 73.41967323 -177.44921875 48.34375 C-164.67090659 18.65676214 -142.03938495 -3.43411888 -112.28125 -15.91845703 C-107.04929101 -17.99175993 -101.73837205 -19.45631433 -96.26171875 -20.71875 C-95.02164063 -21.01652344 -93.7815625 -21.31429687 -92.50390625 -21.62109375 C-60.65786401 -28.75169904 -25.53936541 -20.18266495 0 0 Z " fill="#FEF000" transform="translate(652.26171875,202.71875)"/>
<path d="M0 0 C119.06319832 0 119.06319832 0 141.75 21.1875 C155.99564226 36.24493437 162.74002805 55.10014704 162.25 75.68359375 C161.58880462 90.57040781 155.96771224 103.62403459 148 116 C149.14275391 116.98226562 149.14275391 116.98226562 150.30859375 117.984375 C166.32822509 132.02434458 176.41214932 148.61015455 179 170 C180.29409402 193.29369235 173.93516875 213.30370498 158.50390625 230.8359375 C146.03524254 244.04656813 131.60049744 250.47990051 114 254 C76.38 254 38.76 254 0 254 C0 170.18 0 86.36 0 0 Z M41 42 C41 61.8 41 81.6 41 102 C49.683125 102.0825 58.36625 102.165 67.3125 102.25 C71.39105347 102.30462402 71.39105347 102.30462402 75.55200195 102.36035156 C77.73908705 102.37204847 79.92618095 102.38223791 82.11328125 102.390625 C83.77780334 102.4213208 83.77780334 102.4213208 85.47595215 102.45263672 C95.76509958 102.45717889 104.67824076 100.24021312 112.27734375 93 C118.686797 85.55863931 120.4929981 78.16722691 120.40625 68.52734375 C119.56323406 61.2076957 116.0865253 54.5332035 110.6875 49.5 C103.81730558 44.33592925 96.2076228 41.86567488 87.65893555 41.88647461 C86.60379761 41.88659546 85.54865967 41.88671631 84.46154785 41.88684082 C82.81575745 41.89451477 82.81575745 41.89451477 81.13671875 41.90234375 C79.61093201 41.90385437 79.61093201 41.90385437 78.05432129 41.90539551 C74.26536934 41.91061581 70.4764335 41.92457707 66.6875 41.9375 C53.9721875 41.9684375 53.9721875 41.9684375 41 42 Z M41 144 C41 166.77 41 189.54 41 213 C57.025625 213.0928125 57.025625 213.0928125 73.375 213.1875 C76.72962402 213.21481201 80.08424805 213.24212402 83.54052734 213.27026367 C86.22232707 213.27903185 88.90413082 213.28667501 91.5859375 213.29296875 C92.61154282 213.30472893 92.61154282 213.30472893 93.65786743 213.31672668 C107.22579419 213.46432251 117.75297784 211.57878519 127.9765625 202.18359375 C134.64567325 195.15974307 137.19882848 188.14720398 137.5 178.5 C137.22619142 169.1338582 134.41042972 160.95745306 128 154 C117.89212646 144.61573262 107.21276196 143.41544514 93.9296875 143.609375 C92.56974953 143.61527054 91.20980242 143.61934236 89.84985352 143.62158203 C84.85809549 143.64238688 79.86653293 143.69823154 74.875 143.75 C63.69625 143.8325 52.5175 143.915 41 144 Z " fill="#000000" transform="translate(1085,711)"/>
<path d="M0 0 C129.90652628 0 129.90652628 0 162.51806641 32.45214844 C179.95403819 50.66369063 191.38336792 74.29730637 196 99 C196.17587646 99.94037109 196.35175293 100.88074219 196.53295898 101.84960938 C197.95156944 110.14050125 198.34994691 118.22223932 198.3125 126.625 C198.30512817 128.59569458 198.30512817 128.59569458 198.29760742 130.60620117 C198.1733688 140.98171876 197.37827778 150.8970011 195 161 C194.83371094 161.70833984 194.66742187 162.41667969 194.49609375 163.14648438 C186.83825215 194.37346066 168.5496034 222.84554632 141 240 C97.78394693 265.41736085 51.3001734 254 0 254 C0 170.18 0 86.36 0 0 Z M42 42 C42 98.43 42 154.86 42 213 C78.89846904 215.48485427 78.89846904 215.48485427 115.1875 206.4375 C115.85330078 206.09307861 116.51910156 205.74865723 117.20507812 205.39379883 C135.54770812 195.4596816 146.8194659 176.33197485 152.875 156.875 C160.49683677 130.13018614 157.34660657 101.97269552 143.97412109 77.71972656 C141.85361424 73.97615506 139.60356378 70.42537835 137 67 C136.25556641 66.01 136.25556641 66.01 135.49609375 65 C126.30970521 53.66643149 113.31515919 45.72669699 99 43 C80.09138414 41.10913841 61.00292375 42 42 42 Z " fill="#000000" transform="translate(856,711)"/>
<path d="M0 0 C129.58150789 0 129.58150789 0 162.1875 31.75 C168.30390868 37.91044762 173.22383707 44.77562406 178 52 C178.55171875 52.80566406 179.1034375 53.61132812 179.671875 54.44140625 C199.81081484 85.5701439 203.01488244 125.88322942 195.49609375 161.37890625 C188.307623 192.84843376 169.42761571 222.39810863 141.92431641 239.85058594 C98.98488743 265.49875031 49.38961666 254 0 254 C0 170.18 0 86.36 0 0 Z M41 42 C41 98.43 41 154.86 41 213 C90.96662517 216.15098041 90.96662517 216.15098041 131.3203125 194.8046875 C150.16492346 175.08102763 157.91793328 149.26186947 157.3125 122.265625 C156.20083429 97.30872976 146.09645494 74.26006417 128 57 C103.13359765 36.15047803 72.26541699 42 41 42 Z " fill="#000000" transform="translate(16,711)"/>
<path d="M0 0 C13.53 0 27.06 0 41 0 C41.33 38.28 41.66 76.56 42 116 C47.40546912 110.65245231 47.40546912 110.65245231 52.45703125 105.07421875 C56.08413647 100.87308294 59.86766864 96.83815132 63.6875 92.8125 C69.0105182 87.18033209 74.30720732 81.52710255 79.55249023 75.82250977 C82.21345188 72.93051329 84.88480095 70.04892191 87.5703125 67.1796875 C88.18245605 66.52564941 88.79459961 65.87161133 89.42529297 65.19775391 C90.5926099 63.9517204 91.76081906 62.70652178 92.93017578 61.46240234 C93.47399902 60.88184082 94.01782227 60.3012793 94.578125 59.703125 C95.10745636 59.15227737 95.63678772 58.60142975 96.18215942 58.03388977 C98.05133009 56.02464151 98.05133009 56.02464151 99.60296631 53.70051575 C102.33591548 49.99983118 104.44269151 47.41119158 108.99200439 46.20999146 C112.589437 45.95982838 116.08384796 45.98709848 119.6875 46.12109375 C121.63487061 46.14019554 121.63487061 46.14019554 123.62158203 46.15968323 C127.04917568 46.19381177 130.47325618 46.28198711 133.8994751 46.38201904 C137.4051562 46.47461425 140.91141349 46.51530172 144.41796875 46.56054688 C151.28007598 46.6566476 158.13986872 46.80994625 165 47 C161.79545969 50.76899571 158.58703634 54.51791001 155.1953125 58.12109375 C154.52886719 58.82943359 153.86242187 59.53777344 153.17578125 60.26757812 C152.49902344 60.98365234 151.82226562 61.69972656 151.125 62.4375 C150.45597656 63.14970703 149.78695312 63.86191406 149.09765625 64.59570312 C145.06713339 68.8708531 140.96863192 73.06255646 136.78173828 77.18481445 C135.02073282 78.97887798 133.37640463 80.83382754 131.75 82.75 C128.66438388 86.3451674 125.36802377 89.67337787 122 93 C118.12402351 96.82856394 114.43953652 100.71735137 110.91015625 104.87109375 C108.36022609 107.71304045 105.65213793 110.3788087 102.9375 113.0625 C96.61929691 119.22297315 96.61929691 119.22297315 91 126 C91.33191782 129.2655766 92.78911853 131.42983379 94.66796875 134.0625 C95.22403809 134.84858643 95.78010742 135.63467285 96.35302734 136.44458008 C96.95840332 137.28786865 97.5637793 138.13115723 98.1875 139 C99.47540397 140.81630446 100.76316043 142.63271354 102.05078125 144.44921875 C103.04005615 145.83826416 103.04005615 145.83826416 104.04931641 147.25537109 C107.01327137 151.42568169 109.94423551 155.61883096 112.875 159.8125 C113.44629639 160.62847656 114.01759277 161.44445312 114.60620117 162.28515625 C119.76634872 169.65659121 124.90295111 177.04432954 130.03857422 184.43286133 C134.34746166 190.63007061 138.66828616 196.81872784 143 203 C150.69369531 213.98123192 158.35553464 224.98444746 166 236 C166.58604004 236.84336914 167.17208008 237.68673828 167.77587891 238.55566406 C169.3531701 240.82700003 170.92723343 243.10052955 172.5 245.375 C172.96301514 246.04112305 173.42603027 246.70724609 173.90307617 247.39355469 C177 251.88478807 177 251.88478807 177 253 C169.86561923 253.22872479 162.73218711 253.3860189 155.5949707 253.49438477 C153.16883009 253.53956821 150.74293352 253.60093045 148.31762695 253.67895508 C144.82442031 253.78849814 141.33445795 253.83924623 137.83984375 253.87890625 C136.76041 253.92535782 135.68097626 253.97180939 134.5688324 254.01966858 C127.17092385 254.02459636 127.17092385 254.02459636 123.82463074 251.09648132 C122.02387025 248.80642017 120.50043937 246.49477727 119 244 C117.92516918 242.47611008 116.84175125 240.95820397 115.74609375 239.44921875 C114.6408359 237.86364476 113.53805662 236.27634074 112.4375 234.6875 C111.20709552 232.92052816 109.9766249 231.15360238 108.74609375 229.38671875 C108.12460449 228.49259277 107.50311523 227.5984668 106.86279297 226.67724609 C103.91797015 222.44488344 100.95855942 218.22276581 98 214 C96.83325679 212.33338692 95.66659028 210.66672013 94.5 209 C93.9225 208.175 93.345 207.35 92.75 206.5 C91 204 89.25 201.5 87.5 199 C86.9215332 198.17363037 86.34306641 197.34726074 85.74707031 196.49584961 C84.5901255 194.84304821 83.43322387 193.1902166 82.27636719 191.53735352 C79.2113247 187.15828872 76.14535179 182.77987893 73.078125 178.40234375 C72.43746094 177.48775391 71.79679688 176.57316406 71.13671875 175.63085938 C69.9052228 173.87285429 68.67346394 172.11503333 67.44140625 170.35742188 C66.61189453 169.1730957 66.61189453 169.1730957 65.765625 167.96484375 C65.27868164 167.2699585 64.79173828 166.57507324 64.29003906 165.85913086 C63.17490834 164.25206794 62.08502644 162.62753967 61 161 C52.75599802 164.96260187 45.91716742 170.57123812 42 179 C39.50712579 190.55561807 40.20890609 202.651517 40.50646973 214.40222168 C40.6170615 219.52968024 40.61393472 224.65825387 40.63051605 229.78671265 C40.66796016 237.52869665 40.84704767 245.25557839 41 253 C27.47 253 13.94 253 0 253 C0 169.51 0 86.02 0 0 Z " fill="#000000" transform="translate(652,712)"/>
<path d="M0 0 C2.20741923 0.02145256 4.41157429 0.00005119 6.61889648 -0.02539062 C20.042711 -0.05319013 33.48518531 2.10617401 45.58569336 8.20898438 C46.28380127 8.55074707 46.98190918 8.89250977 47.70117188 9.24462891 C67.86391224 19.46140494 82.42845768 36.39267981 89.62084961 57.68164062 C92.02414147 65.34655476 92.77319336 72.49700487 92.77319336 80.52148438 C78.91319336 80.52148438 65.05319336 80.52148438 50.77319336 80.52148438 C48.79319336 73.09648438 48.79319336 73.09648438 46.77319336 65.52148438 C40.22882182 53.4981041 31.00564341 46.90493609 17.97387695 42.97949219 C12.98982328 41.94220744 7.78124421 42.249679 2.71069336 42.20898438 C1.53313477 42.17998047 0.35557617 42.15097656 -0.85766602 42.12109375 C-13.45180681 42.03048842 -23.8318441 45.73779898 -33.16430664 54.29882812 C-40.24021343 61.75597989 -44.30323232 71.14135971 -44.38793945 81.4284668 C-44.397547 82.37682907 -44.40715454 83.32519135 -44.41705322 84.30229187 C-44.42342804 85.82424919 -44.42342804 85.82424919 -44.42993164 87.37695312 C-44.43848175 88.96217522 -44.43848175 88.96217522 -44.44720459 90.579422 C-44.4566388 92.81441248 -44.46318229 95.04941677 -44.46704102 97.28442383 C-44.47672242 100.6794507 -44.50775155 104.07386569 -44.53930664 107.46875 C-44.54583984 109.6464808 -44.55108907 111.82421591 -44.55493164 114.00195312 C-44.56727844 115.00647018 -44.57962524 116.01098724 -44.59234619 117.04594421 C-44.55653151 128.55165026 -41.22580529 138.89033318 -33.41040039 147.52929688 C-20.82688525 159.27391101 -6.96412254 160.08823507 9.40991211 159.83007812 C21.92254101 159.39145361 32.59040659 155.19599201 41.87084961 146.57226562 C48.71999953 139.17053036 50.7515171 132.62986566 52.77319336 122.52148438 C66.63319336 122.52148438 80.49319336 122.52148438 94.77319336 122.52148438 C94.77319336 144.7058912 86.54871875 162.29110282 71.24975586 178.13476562 C49.78397632 198.87662591 22.5946416 203.14917671 -6.05883789 202.79101562 C-29.31704089 202.34938469 -49.71744653 192.02939819 -65.80883789 175.34960938 C-77.8621826 161.25167469 -86.20503972 142.707244 -86.40380859 123.98535156 C-86.41664383 122.92274109 -86.42947906 121.86013062 -86.44270325 120.76531982 C-86.45009018 119.62782288 -86.45747711 118.49032593 -86.46508789 117.31835938 C-86.47315964 116.12656067 -86.48123138 114.93476196 -86.48954773 113.70684814 C-86.50336209 111.18185873 -86.51409605 108.65685085 -86.52197266 106.13183594 C-86.53343243 103.57969594 -86.5537874 101.02757875 -86.58349609 98.47558594 C-87.00314405 62.38117312 -87.00314405 62.38117312 -78.47680664 47.08398438 C-78.13174072 46.43405518 -77.7866748 45.78412598 -77.43115234 45.11450195 C-69.04662389 29.71019122 -57.70256087 17.85897558 -42.22680664 9.52148438 C-40.88682617 8.79832031 -40.88682617 8.79832031 -39.51977539 8.06054688 C-26.94367827 1.83848983 -13.85064028 -0.15918517 0 0 Z " fill="#000000" transform="translate(527.226806640625,765.478515625)"/>
<path d="M0 0 C13.86 0 27.72 0 42 0 C42.01458252 3.7645459 42.02916504 7.5290918 42.04418945 11.40771484 C42.09457909 23.86088022 42.1610332 36.31391671 42.23571491 48.76695824 C42.28059341 56.31549046 42.32002617 63.86397635 42.34643555 71.41259766 C42.36948024 77.9954743 42.40294989 84.5782033 42.44870156 91.1609627 C42.47254705 94.64333478 42.49133237 98.12556143 42.49761391 101.60801315 C42.5048391 105.50495076 42.53534912 109.40152551 42.56762695 113.29833984 C42.56619186 114.44058014 42.56475677 115.58282043 42.5632782 116.75967407 C42.69437223 127.98827263 45.31266462 138.65946571 52.97265625 147.19921875 C61.79813551 155.62000231 70.58396699 157.6616005 82.5625 157.4375 C83.63435547 157.44458984 84.70621094 157.45167969 85.81054688 157.45898438 C96.88713734 157.37091363 104.9704074 154.80276795 113 147 C119.76490622 138.92337993 123.08376381 129.18930228 123.15821838 118.69120789 C123.1680072 117.64097946 123.17779602 116.59075104 123.18788147 115.50869751 C123.19363693 114.36718231 123.1993924 113.22566711 123.20532227 112.04956055 C123.21522186 110.83938766 123.22512146 109.62921478 123.23532104 108.38237 C123.26145745 105.0728596 123.28334056 101.76337266 123.30332303 98.45382285 C123.32523505 94.99179767 123.35259815 91.52981564 123.37937927 88.06782532 C123.42923577 81.51606153 123.47420064 74.9642737 123.51740164 68.41246301 C123.56683431 60.95175922 123.62173002 53.49109874 123.67708123 46.03043687 C123.79079313 30.68699645 123.89693441 15.34351619 124 0 C137.86 0 151.72 0 166 0 C166.0679849 16.65629945 166.12313663 33.31247861 166.15543652 49.96887875 C166.17083925 57.70448243 166.19180091 65.43999314 166.22631836 73.17553711 C166.25642451 79.92576258 166.27562277 86.67592066 166.28226548 93.42621142 C166.28614224 96.99326564 166.2951114 100.56012722 166.31719017 104.12711906 C166.47865627 131.29857582 165.02962522 157.88009016 145.28125 178.84375 C128.36742442 194.83079061 108.18826967 200.75914826 85.43652344 200.52148438 C83.00094136 200.5000083 80.56830706 200.52143392 78.1328125 200.546875 C64.68853386 200.57231292 51.63055246 198.7070847 39.625 192.25 C38.96564453 191.90638428 38.30628906 191.56276855 37.62695312 191.20874023 C19.58037034 181.50715539 8.30536762 165.80464065 2.45825195 146.50561523 C0.79473488 140.70294165 -0.12587324 135.18786441 -0.12025452 129.15335083 C-0.12162918 128.00919205 -0.12300385 126.86503326 -0.12442017 125.686203 C-0.12082489 124.44542496 -0.11722961 123.20464691 -0.11352539 121.92626953 C-0.11367142 120.60866135 -0.11381744 119.29105316 -0.1139679 117.93351746 C-0.11425409 114.33273418 -0.10838617 110.73198441 -0.10139394 107.1312089 C-0.09513072 103.36358721 -0.09455425 99.59596471 -0.09336853 95.82833862 C-0.09026396 88.69929684 -0.08206237 81.57027044 -0.07201904 74.44123542 C-0.06083074 66.32275227 -0.05534061 58.20426837 -0.05032361 50.08577943 C-0.03987901 33.3905092 -0.02154441 16.69526016 0 0 Z " fill="#000000" transform="translate(244,768)"/>
<path d="M0 0 C9.735 -0.04125 19.47 -0.0825 29.5 -0.125 C34.08938477 -0.15231201 34.08938477 -0.15231201 38.77148438 -0.18017578 C41.2122378 -0.18602019 43.65299318 -0.19111588 46.09375 -0.1953125 C47.34833008 -0.20554443 48.60291016 -0.21577637 49.89550781 -0.22631836 C63.20516666 -0.22896126 74.85594693 2.81555946 84.875 12.125 C93.44207074 21.28397745 96.50402263 31.5846103 96.2734375 43.78515625 C95.77249911 54.79836114 90.75473823 64.3337962 82.96875 72 C74.84430067 78.82924726 64.66598108 83.1358529 54.03808594 83.11352539 C52.82040527 83.11340454 51.60272461 83.11328369 50.34814453 83.11315918 C49.07310059 83.10804321 47.79805664 83.10292725 46.484375 83.09765625 C45.30891113 83.09664917 44.13344727 83.09564209 42.92236328 83.09460449 C38.5315656 83.08937264 34.14078182 83.07541138 29.75 83.0625 C19.9325 83.041875 10.115 83.02125 0 83 C0 55.61 0 28.22 0 0 Z " fill="#FCEE00" transform="translate(734,253)"/>
</svg>
