<?xml version="1.0" encoding="UTF-8"?>
<svg version="1.1" xmlns="http://www.w3.org/2000/svg" width="1234" height="1199">
<path d="M0 0 C1.86080386 0.90323307 3.72296382 1.80361336 5.58551025 2.70324707 C10.78619835 5.21602323 15.98547855 7.73162781 21.17901611 10.25915527 C29.5209955 14.31513388 37.90479177 18.26537265 46.33306885 22.13977051 C58.60776141 27.78747737 70.74707712 33.69505012 82.88116455 39.63769531 C93.15072102 44.66487173 103.44088322 49.61999209 113.83306885 54.38977051 C125.94515716 59.94894541 137.91542955 65.7774172 149.88336182 71.63879395 C160.15218547 76.66560129 170.441629 81.62033438 180.83306885 86.38977051 C192.94515716 91.94894541 204.91542955 97.7774172 216.88336182 103.63879395 C227.15218547 108.66560129 237.441629 113.62033438 247.83306885 118.38977051 C259.94515716 123.94894541 271.91542955 129.7774172 283.88336182 135.63879395 C294.15218547 140.66560129 304.441629 145.62033438 314.83306885 150.38977051 C326.93635843 155.94490699 338.89929165 161.76675204 350.85717773 167.62670898 C362.74101866 173.44820368 374.66594124 179.15196907 386.71783447 184.61828613 C411.36003986 195.87306472 429.96999111 209.74391868 440.52780151 235.33726501 C442.91711483 241.84018473 444.42080758 248.548239 445.98931885 255.28430176 C446.37614341 256.912619 446.76365577 258.54077297 447.15179443 260.16877747 C448.39545109 265.4052816 449.61606859 270.64701691 450.83306885 275.88977051 C451.03190674 276.74443657 451.23074463 277.59910263 451.43560791 278.47966766 C454.2714441 290.6713707 457.06552901 302.8725092 459.84951782 315.07614136 C462.25577251 325.6239355 464.67135464 336.1695967 467.0861721 346.71543312 C467.68499879 349.33065796 468.28375996 351.94589769 468.88241005 354.56116295 C477.22933357 391.02427895 485.62935049 427.47518097 494.02754986 463.92651433 C495.57645691 470.64939696 497.1251177 477.37233629 498.67364502 484.0953064 C507.43862331 522.14831192 516.20798123 560.20029514 524.99999428 598.24706459 C526.0850972 602.94279892 527.16994206 607.63859284 528.25474548 612.33439636 C528.95051942 615.34610253 529.64630812 618.35780529 530.34210205 621.36950684 C530.51072435 622.09939186 530.67934665 622.82927688 530.85307872 623.58127964 C532.82016538 632.09561502 534.78855478 640.609647 536.75909036 649.12318486 C538.10394986 654.93387612 539.44706442 660.7449692 540.78954124 666.55621147 C541.33206004 668.90311234 541.87522551 671.24986383 542.41909218 673.59645271 C543.15314517 676.7638313 543.88498168 679.93171405 544.61627197 683.09973145 C544.93519551 684.47196129 544.93519551 684.47196129 545.26056194 685.87191296 C550.58445582 708.9916317 549.28784386 732.14391855 537.12115479 752.88098145 C533.42439389 758.64613471 528.89277556 763.79565902 524.44390869 768.98449707 C521.98921878 771.88786174 519.66165751 774.88505721 517.33306885 777.88977051 C512.85278128 783.6324686 508.27258052 789.28870719 503.66680908 794.93103027 C500.19413403 799.1928796 496.77480578 803.49108152 493.39556885 807.82727051 C488.71304734 813.83191573 483.88319019 819.70637174 479.0269165 825.57092285 C474.92177479 830.539122 470.90773068 835.56830178 466.9463501 840.65148926 C462.92387899 845.80307506 458.79959105 850.86822661 454.66656494 855.93127441 C451.19401987 860.19308098 447.77473528 864.49117199 444.39556885 868.82727051 C439.71593569 874.82821185 434.88948206 880.69940688 430.03570557 886.55993652 C425.83045798 891.64864434 421.72168929 896.80326284 417.66070557 902.00744629 C414.25791423 906.36417396 410.78185941 910.65494662 407.27056885 914.92492676 C399.74902386 924.07372907 392.28705281 933.26497021 384.99761963 942.59997559 C380.95434376 947.76541018 376.81478056 952.84953731 372.66680908 957.93103027 C369.19413403 962.1928796 365.77480578 966.49108152 362.39556885 970.82727051 C357.71593569 976.82821185 352.88948206 982.69940688 348.03570557 988.55993652 C343.83045798 993.64864434 339.72168929 998.80326284 335.66070557 1004.00744629 C332.25791423 1008.36417396 328.78185941 1012.65494662 325.27056885 1016.92492676 C317.74902386 1026.07372907 310.28705281 1035.26497021 302.99761963 1044.59997559 C298.95434376 1049.76541018 294.81478056 1054.84953731 290.66680908 1059.93103027 C287.19413403 1064.1928796 283.77480578 1068.49108152 280.39556885 1072.82727051 C275.71593569 1078.82821185 270.88948206 1084.69940688 266.03570557 1090.55993652 C262.30024202 1095.08016563 258.62938751 1099.64289391 255.02056885 1104.26477051 C238.12034226 1125.85578405 220.58606024 1145.25851535 191.86483401 1149.15692429 C186.67241537 1149.76933416 181.58056705 1150.0338035 176.35487366 1150.02119827 C175.14397022 1150.02427722 175.14397022 1150.02427722 173.90860409 1150.02741838 C171.21649922 1150.03305124 168.52444611 1150.03163575 165.83233643 1150.0302124 C163.87740394 1150.03279817 161.92247198 1150.03581192 159.96754074 1150.0392158 C154.60494511 1150.04726418 149.24236289 1150.04907417 143.87976193 1150.04981327 C138.0922162 1150.0516676 132.30467735 1150.05921683 126.51713562 1150.06594849 C113.86610509 1150.07951693 101.21507773 1150.0855542 88.56404114 1150.08995914 C80.66091851 1150.09272407 72.7577971 1150.09696188 64.85467529 1150.10146332 C42.9623726 1150.11365401 21.07007091 1150.12398909 -0.82223511 1150.12733841 C-2.2369045 1150.12756004 -3.6515739 1150.12778182 -5.06624329 1150.12800376 C-6.48424792 1150.1282244 -7.90225255 1150.12844488 -9.32025719 1150.12866521 C-12.16481908 1150.12910775 -15.00938098 1150.12955487 -17.85394287 1150.13000488 C-18.55922427 1150.13011427 -19.26450567 1150.13022366 -19.99115923 1150.13033637 C-42.85055964 1150.13396553 -65.70992832 1150.14988161 -88.56931658 1150.17319525 C-112.76048148 1150.19782183 -136.95162825 1150.21151256 -161.14280605 1150.21270633 C-174.32073645 1150.21362205 -187.49862527 1150.21934846 -200.67654419 1150.23752594 C-211.89893718 1150.25295173 -223.12127576 1150.25803275 -234.34367734 1150.24978784 C-240.06523981 1150.24589015 -245.78669277 1150.24676787 -251.50824165 1150.26084518 C-256.75540167 1150.27363679 -262.00237048 1150.27234062 -267.24953043 1150.26025447 C-269.13851688 1150.25830656 -271.02751712 1150.26133355 -272.91648424 1150.27009884 C-298.46736488 1150.38106777 -321.87762733 1145.35850966 -340.66693115 1126.82727051 C-345.98388693 1121.42154306 -350.69763204 1115.64903615 -355.2880249 1109.62414551 C-358.47108577 1105.45439151 -361.81557841 1101.42461984 -365.16693115 1097.38977051 C-369.8607294 1091.72451381 -374.46484044 1086.00402949 -378.9833374 1080.19836426 C-382.63178346 1075.52877877 -386.38712058 1070.95340572 -390.16693115 1066.38977051 C-394.87996963 1060.69832588 -399.51146116 1054.95652403 -404.0536499 1049.12805176 C-407.53546984 1044.66887886 -411.08935472 1040.27238026 -414.66693115 1035.88977051 C-418.69903944 1030.95034925 -422.68503968 1025.98157815 -426.60443115 1020.95227051 C-431.28758219 1014.946818 -436.1177477 1009.07126742 -440.97528076 1003.2064209 C-445.05944849 998.26442716 -449.04584636 993.25751447 -452.9833374 988.19836426 C-456.63178346 983.52877877 -460.38712058 978.95340572 -464.16693115 974.38977051 C-468.87996963 968.69832588 -473.51146116 962.95652403 -478.0536499 957.12805176 C-481.53546984 952.66887886 -485.08935472 948.27238026 -488.66693115 943.88977051 C-492.69903944 938.95034925 -496.68503968 933.98157815 -500.60443115 928.95227051 C-505.28758219 922.946818 -510.1177477 917.07126742 -514.97528076 911.2064209 C-519.05944849 906.26442716 -523.04584636 901.25751447 -526.9833374 896.19836426 C-530.63178346 891.52877877 -534.38712058 886.95340572 -538.16693115 882.38977051 C-542.87763571 876.70114432 -547.5065714 870.96198997 -552.04705811 865.13684082 C-556.6748372 859.21097436 -561.42823015 853.38929008 -566.1786499 847.56164551 C-569.15109945 843.91435457 -572.08992684 840.2411275 -575.0223999 836.56164551 C-577.26564031 833.76678861 -579.52757751 830.98783425 -581.79193115 828.21008301 C-586.46687491 822.47461961 -591.11223756 816.72131688 -595.66693115 810.88977051 C-599.57435912 805.8892312 -603.53608124 800.93683936 -607.54193115 796.01477051 C-608.08591553 795.34631104 -608.6298999 794.67785156 -609.19036865 793.98913574 C-611.92943447 790.6270778 -614.67456354 787.27008489 -617.42474365 783.91711426 C-620.1393562 780.60338383 -622.83658509 777.27620964 -625.5199585 773.93713379 C-626.63388445 772.55240461 -627.75150593 771.17064145 -628.87249756 769.79162598 C-646.56147306 747.94526423 -654.08977122 727.27768773 -652.16693115 698.88977051 C-651.23606216 691.43453641 -649.39316977 684.17978446 -647.58880615 676.89758301 C-647.08997308 674.7949649 -646.59395587 672.69167716 -646.10046387 670.58779907 C-645.03572135 666.06225446 -643.95727944 661.54028204 -642.86932373 657.02026367 C-641.11793119 649.71903941 -639.4316043 642.40366865 -637.75872803 635.08410645 C-637.46951666 633.81912008 -637.18030529 632.55413372 -636.88232994 631.25081444 C-636.43680424 629.30174293 -635.99127995 627.35267109 -635.54597318 625.40354955 C-633.84032884 617.94067064 -632.1192028 610.48137185 -630.39788818 603.02209473 C-630.07273987 601.61267688 -629.74760376 600.20325621 -629.42247963 598.79383278 C-628.92695186 596.64572312 -628.43141515 594.49761552 -627.9358319 592.34951866 C-626.02164491 584.05224047 -624.10959607 575.75446972 -622.19769287 567.45666504 C-621.9317292 566.3023661 -621.9317292 566.3023661 -621.66039252 565.12474799 C-620.75792525 561.20793972 -619.85549248 557.2911235 -618.95308304 553.37430191 C-618.22473273 550.21299872 -617.49631363 547.0517114 -616.76783371 543.89043808 C-609.40890973 511.95589736 -602.07154106 480.01642673 -594.74043018 448.07549119 C-592.97705985 440.39274586 -591.21326483 432.71009805 -589.44940186 425.02746582 C-589.29175846 424.34083752 -589.13411506 423.65420922 -588.97169459 422.94677401 C-588.02107018 418.80627069 -587.07042762 414.66577154 -586.11977267 410.52527523 C-585.80532935 409.15574387 -585.49088718 407.78621224 -585.1764462 406.41668034 C-578.84485436 378.83976104 -572.51297219 351.2629083 -566.17303467 323.68790627 C-564.76652661 317.57041672 -563.36037697 311.4528455 -561.95532227 305.33502197 C-559.08730594 292.84828484 -556.21312103 280.36302282 -553.32196045 267.88162231 C-552.59911171 264.7605657 -551.87897611 261.63891682 -551.16278076 258.5163269 C-550.34883463 254.96814285 -549.52301583 251.42281225 -548.6942749 247.87805176 C-548.4841124 246.95356232 -548.27394989 246.02907288 -548.05741882 245.0765686 C-544.9589171 231.99058316 -539.12689898 220.90385219 -530.16693115 210.88977051 C-529.51982178 210.05574707 -528.8727124 209.22172363 -528.20599365 208.36242676 C-518.36018345 196.42296726 -502.48999613 189.82418257 -488.6965332 183.47781372 C-484.98875359 181.77103656 -481.29093988 180.04290602 -477.5927124 178.31555176 C-476.8227594 177.95630112 -476.0528064 177.59705048 -475.25952148 177.22691345 C-466.55396688 173.15400031 -457.92401926 168.92801794 -449.29193115 164.70227051 C-437.5813706 158.97412639 -425.82905447 153.37325199 -413.98187256 147.93200684 C-402.94381595 142.83770203 -392.03451607 137.48783403 -381.1171875 132.14102173 C-369.76456081 126.58366691 -358.36987364 121.15473579 -346.8817749 115.88195801 C-336.73535869 111.20261426 -326.70112116 106.30408375 -316.66693115 101.38977051 C-304.46511397 95.41384702 -292.23040087 89.54969835 -279.8817749 83.88195801 C-268.87525939 78.80595201 -257.99929528 73.47067023 -247.11462402 68.13973999 C-236.88823697 63.13360591 -226.64161921 58.19949269 -216.29193115 53.45227051 C-204.65823995 48.11494981 -193.15886761 42.52427273 -181.66693115 36.88977051 C-169.10731729 30.73178551 -156.52247862 24.66969154 -143.80438232 18.84436035 C-136.9521045 15.68998531 -130.15512533 12.44024068 -123.3817749 9.12023926 C-122.52388367 8.70001999 -121.66599243 8.27980072 -120.78210449 7.84684753 C-116.55122808 5.7724016 -112.32418213 3.69057215 -108.10198975 1.59851074 C-68.76333056 -17.81314755 -39.9515548 -19.39589863 0 0 Z " fill="#326CE5" transform="translate(669.1669311523438,32.1102294921875)"/>
<path d="M0 0 C5.7429972 4.65820884 8.55059424 9.59709521 10.859375 16.5234375 C12.15104038 31.28939976 10.25422398 45.81620914 7.83203125 60.3515625 C6.2230616 70.17662837 5.65940105 79.88700606 5.609375 89.8359375 C5.58875 90.88072266 5.568125 91.92550781 5.546875 93.00195312 C5.5184355 98.59386885 5.62697408 102.72949024 8.859375 107.5234375 C9.560625 108.2040625 10.261875 108.8846875 10.984375 109.5859375 C14.14328433 112.85014381 13.84952871 115.92281364 13.921875 120.3359375 C13.8909375 121.91375 13.8909375 121.91375 13.859375 123.5234375 C14.890625 123.47960937 15.921875 123.43578125 16.984375 123.390625 C23.36298728 123.39901791 29.58723238 124.58451984 35.859375 125.6484375 C36.51899231 125.75981049 37.17860962 125.87118347 37.85821533 125.9859314 C67.49937376 131.02906065 95.60300714 139.835804 122.859375 152.5234375 C123.70951172 152.91756836 124.55964844 153.31169922 125.43554688 153.71777344 C146.68194973 163.67754308 166.3528232 176.12894113 184.859375 190.5234375 C185.41544434 190.95495117 185.97151367 191.38646484 186.54443359 191.83105469 C193.48309222 197.25936356 199.9441024 203.18230859 206.39404297 209.17138672 C209.53009432 212.06499758 212.71866076 214.90075955 215.8984375 217.74609375 C217.25024269 218.97133551 218.56929852 220.23336102 219.859375 221.5234375 C222.78476202 221.32168667 223.90048715 220.48627844 226.09375 218.50390625 C229.41236087 216.12744338 231.26087287 216.03224496 235.296875 215.9609375 C249.0634875 215.68463005 258.86178656 203.82660442 267.859375 194.5234375 C270.39706926 191.97346408 272.94702952 189.43694654 275.5078125 186.91015625 C281.68255522 180.79920416 281.68255522 180.79920416 287.484375 174.3359375 C295.07439392 165.56166031 303.78154907 157.768769 315.609375 155.9453125 C324.1472518 155.56661635 330.40471893 156.76593236 336.859375 162.5234375 C341.51467162 166.93519748 343.14103957 171.02699149 343.46386719 177.46166992 C343.52898858 184.20716107 343.00405678 190.00591159 338.859375 195.5234375 C338.29283203 196.37035156 338.29283203 196.37035156 337.71484375 197.234375 C331.00406489 206.19559632 319.8574005 211.6326911 310.22949219 216.94140625 C298.65851566 223.35569224 287.36227867 230.31703151 276.921875 238.4609375 C276.36097168 238.89712402 275.80006836 239.33331055 275.22216797 239.78271484 C269.4086991 244.43108978 269.4086991 244.43108978 266.27734375 250.953125 C266.16326172 252.16355469 266.16326172 252.16355469 266.046875 253.3984375 C265.21850451 258.47505664 263.24604985 260.91365596 259.515625 264.34375 C257.859375 265.5234375 257.859375 265.5234375 255.859375 265.5234375 C258.54313199 270.51677383 261.37902347 275.36499867 264.421875 280.1484375 C302.59531643 342.04548659 319.17251098 419.46589571 307.859375 491.5234375 C308.41625 491.56339844 308.973125 491.60335938 309.546875 491.64453125 C316.20642129 492.55571917 319.02863376 495.22768317 323.1328125 500.4296875 C326.65089072 504.6959543 330.82713824 505.39452583 335.984375 506.4609375 C336.81187256 506.63278564 337.63937012 506.80463379 338.49194336 506.98168945 C352.64817196 509.78948261 367.06937251 511.41919694 381.484375 512.0234375 C395.64721672 512.64529838 410.60564787 514.79279283 420.859375 525.5234375 C425.70723177 532.4930353 427.07750202 539.13576287 425.859375 547.5234375 C423.6752862 555.48654388 417.52453231 560.20466451 410.796875 564.4609375 C394.93463 570.15415862 377.12175506 561.57296716 362.67773438 555.62060547 C356.26175411 553.0040808 349.77526008 550.74522847 343.171875 548.6484375 C342.27573486 548.36242676 341.37959473 548.07641602 340.45629883 547.78173828 C325.74400006 542.66529817 325.74400006 542.66529817 310.9921875 544.4921875 C310.18394531 545.06453125 310.18394531 545.06453125 309.359375 545.6484375 C304.24642412 548.38751833 300.28178787 546.97464384 294.859375 545.5234375 C294.78332031 546.28011719 294.70726562 547.03679688 294.62890625 547.81640625 C293.53746704 553.07415149 291.55530751 557.86637904 289.546875 562.8359375 C288.8813562 564.48396362 288.8813562 564.48396362 288.20239258 566.1652832 C273.7936717 601.31235065 254.69862702 634.27777362 228.88671875 662.3125 C227.0979416 664.26326661 225.38094381 666.25324145 223.671875 668.2734375 C215.80285459 677.3007483 207.09740081 685.90444714 197.859375 693.5234375 C197.3427832 693.95914063 196.82619141 694.39484375 196.29394531 694.84375 C159.8919339 725.5234375 159.8919339 725.5234375 151.859375 725.5234375 C152.6328125 727.0084375 152.6328125 727.0084375 153.421875 728.5234375 C155.13441255 732.92489148 154.67149753 736.38021399 154.109375 741.0234375 C152.12473015 761.79236049 171.25016282 783.78487564 182.78710938 799.63305664 C191.35819886 811.58200898 195.93143895 822.65437656 194.859375 837.5234375 C193.22685077 844.23030455 188.40518447 848.69804338 182.859375 852.5234375 C177.8316834 855.27112942 172.58026374 856.47511653 166.859375 855.5234375 C158.67127444 853.10586124 152.02916448 848.47744646 147.7578125 841.0390625 C142.52501418 831.26362558 139.07699044 821.05190881 135.94921875 810.43359375 C128.90172664 783.6636465 128.90172664 783.6636465 112.859375 762.5234375 C111.68375 762.0903125 110.508125 761.6571875 109.296875 761.2109375 C104.75120458 758.97942657 103.92419144 757.06603366 101.859375 752.5234375 C101.859375 751.8634375 101.859375 751.2034375 101.859375 750.5234375 C101.17238525 750.76465332 100.48539551 751.00586914 99.77758789 751.25439453 C22.96515063 778.03210785 -52.48412495 776.35733539 -129.140625 750.5234375 C-129.42172119 751.1625708 -129.70281738 751.8017041 -129.99243164 752.46020508 C-132.21846861 757.35684903 -134.07524723 759.88797082 -139.078125 762.0234375 C-148.59160657 766.20936939 -151.67988566 776.16255555 -155.29150391 785.33154297 C-159.57498264 796.38878049 -163.70895496 807.39833554 -166.640625 818.8984375 C-168.22434643 825.02316114 -170.31554456 830.60880925 -173.140625 836.2734375 C-173.46095703 836.91716309 -173.78128906 837.56088867 -174.11132812 838.22412109 C-178.77104608 847.12229966 -184.57581488 852.08901426 -194.140625 855.5234375 C-201.08290625 856.85341258 -206.78145215 855.57817334 -212.91015625 852.1484375 C-217.97616717 848.45761343 -221.21520095 843.44715203 -223.140625 837.5234375 C-224.0673348 828.69814305 -223.3033317 821.35476109 -219.140625 813.5234375 C-218.65464844 812.60304688 -218.16867187 811.68265625 -217.66796875 810.734375 C-214.62156212 805.27532954 -211.21794852 800.17813444 -207.515625 795.1484375 C-188.36334348 769.77333415 -188.36334348 769.77333415 -182.46484375 740.0546875 C-182.70727718 738.69914577 -182.95730052 737.34493982 -183.21484375 735.9921875 C-183.1011295 732.20969234 -181.59112626 728.98383568 -180.140625 725.5234375 C-180.79957764 725.09111816 -181.45853027 724.65879883 -182.13745117 724.21337891 C-206.78954894 708.0053726 -206.78954894 708.0053726 -217.140625 699.5234375 C-217.65028809 699.10852051 -218.15995117 698.69360352 -218.68505859 698.26611328 C-237.48921787 682.8987154 -255.10513319 665.91707929 -269.69238281 646.45166016 C-271.28353009 644.33317041 -272.89617951 642.23184642 -274.5078125 640.12890625 C-282.9084666 629.06347252 -290.35065417 617.64179008 -297.140625 605.5234375 C-297.63804199 604.6370459 -298.13545898 603.7506543 -298.64794922 602.83740234 C-308.48971849 585.09819022 -316.09911319 566.52397592 -323.140625 547.5234375 C-323.90246094 547.56984375 -324.66429687 547.61625 -325.44921875 547.6640625 C-330.74753569 547.84927208 -334.94673396 547.97750076 -339.703125 545.4609375 C-349.78280206 540.43008264 -362.12265877 546.30242983 -372.140625 549.5234375 C-372.9641748 549.78431152 -373.78772461 550.04518555 -374.63623047 550.31396484 C-385.37894331 553.72977504 -395.92191515 557.46174104 -406.3059082 561.85864258 C-416.61991027 566.15297653 -427.61763636 568.85450461 -438.453125 564.8359375 C-445.65678329 561.54185958 -449.92828903 557.46617919 -453.21875 550.265625 C-455.45594483 543.61091836 -454.98349738 537.65539589 -452.140625 531.2734375 C-447.35283164 522.82439039 -440.37264196 518.1629437 -431.140625 515.5234375 C-423.28475834 513.54278812 -415.33475522 512.93541629 -407.28121948 512.3196106 C-395.83016731 511.42990202 -384.43260809 510.34908297 -373.078125 508.5859375 C-371.60170532 508.36768311 -371.60170532 508.36768311 -370.09545898 508.14501953 C-363.2173534 507.01254984 -356.18152397 505.47923669 -351.046875 500.48828125 C-350.5828125 499.81925781 -350.11875 499.15023438 -349.640625 498.4609375 C-346.1455122 494.04475968 -342.55046429 492.70108959 -337.140625 491.5234375 C-337.12 490.2446875 -337.099375 488.9659375 -337.078125 487.6484375 C-337.06652344 486.92914062 -337.05492187 486.20984375 -337.04296875 485.46875 C-337.12579098 482.97083145 -337.34993849 480.57922462 -337.6340332 478.09960938 C-338.23423541 472.18246643 -338.32027687 466.30324979 -338.34375 460.359375 C-338.34945007 459.20966217 -338.35515015 458.05994934 -338.36102295 456.87539673 C-338.3704274 454.44656275 -338.3769887 452.01771628 -338.38085938 449.58886719 C-338.39046887 445.95744055 -338.42149698 442.32660442 -338.453125 438.6953125 C-338.54089146 419.40929058 -337.04897665 400.45555739 -332.890625 381.5859375 C-332.68010498 380.61253418 -332.46958496 379.63913086 -332.25268555 378.63623047 C-324.10832475 341.97341883 -310.79007369 300.50743745 -287.48852539 270.38793945 C-285.9637035 268.64485724 -285.9637035 268.64485724 -286.078125 266.5859375 C-287.09050782 264.22535846 -287.09050782 264.22535846 -290.015625 262.5234375 C-294.06472234 259.44114591 -294.312178 255.48371137 -295.01171875 250.65625 C-297.570719 243.55480293 -304.69317205 239.0723589 -310.703125 234.8984375 C-311.42201904 234.39481689 -312.14091309 233.89119629 -312.8815918 233.37231445 C-323.48097099 226.07675446 -334.70274961 219.73453541 -345.890625 213.39453125 C-357.19068546 206.95176719 -365.82275276 200.53464913 -371.578125 188.5234375 C-373.23502636 179.68663025 -372.23530004 172.45199404 -367.453125 164.8359375 C-361.80027463 159.18308713 -355.97746589 156.43145496 -348.015625 156.2109375 C-333.57616012 156.44074331 -324.04034853 166.36092141 -314.40625 176.08984375 C-312.53607968 178.09866463 -310.73492878 180.1385412 -308.94140625 182.21484375 C-291.66880657 202.79584457 -291.66880657 202.79584457 -269.140625 216.5234375 C-267.38952979 216.46767014 -265.63930924 216.38089854 -263.890625 216.2734375 C-258.0128979 216.17976854 -255.47628542 217.66951713 -251.140625 221.5234375 C-247.04132402 219.91299783 -244.37947496 216.94466365 -241.390625 213.8359375 C-236.80548434 209.17024708 -232.18025275 204.70223331 -227.140625 200.5234375 C-226.60518066 200.07419922 -226.06973633 199.62496094 -225.51806641 199.16210938 C-177.79845033 159.21080289 -106.55462219 119.53449731 -42.140625 123.5234375 C-42.19283203 122.63591797 -42.19283203 122.63591797 -42.24609375 121.73046875 C-42.41845541 116.69914972 -42.27488867 113.66514306 -39.140625 109.5234375 C-27.7757452 92.81037897 -34.82949452 64.24238155 -38.21875 45.44921875 C-39.22400261 39.55509085 -39.50757129 33.80776319 -39.515625 27.8359375 C-39.54011719 26.86849609 -39.56460937 25.90105469 -39.58984375 24.90429688 C-39.62674977 15.79466188 -36.96193549 8.76706996 -30.78515625 2.02734375 C-21.85592622 -6.13834167 -9.86275773 -6.80314311 0 0 Z " fill="#FDFEFE" transform="translate(631.140625,173.4765625)"/>
<path d="M0 0 C1.20798248 0.20321869 2.41596497 0.40643738 3.66055298 0.61581421 C6.93391996 1.16856819 10.20555955 1.72998506 13.47669268 2.29571414 C16.91253996 2.88792488 20.35022498 3.46927985 23.78768921 4.05201721 C29.5464531 5.02985484 35.30391594 6.01505747 41.06054688 7.00537109 C48.4525453 8.27697808 55.84658221 9.53630002 63.24132729 10.79182339 C69.60980014 11.87319217 75.97733361 12.96005384 82.34471083 14.04785275 C84.38893467 14.39685674 86.43328382 14.74511936 88.47764969 15.09329033 C92.27486402 15.74041984 96.07108235 16.39326886 99.8671875 17.046875 C101.00063599 17.23964523 102.13408447 17.43241547 103.30187988 17.63102722 C104.3306424 17.80909912 105.35940491 17.98717102 106.41934204 18.17063904 C107.31633127 18.32457847 108.2133205 18.47851789 109.13749123 18.63712215 C111.28662109 19.08813477 111.28662109 19.08813477 113.28662109 20.08813477 C111.26527311 27.61530859 108.49803563 34.58538983 105.22412109 41.65063477 C104.73878906 42.70057617 104.25345703 43.75051758 103.75341797 44.83227539 C94.70890745 64.08567425 83.11151727 81.92119204 69.28662109 98.08813477 C68.32764298 99.23212582 67.36934759 100.37668942 66.41162109 101.52172852 C51.60877137 119.12286651 33.0341213 138.40927436 12.28662109 149.08813477 C9.28662109 148.08813477 9.28662109 148.08813477 7.77880859 145.21630859 C7.22839689 143.91399966 6.69032685 142.60643709 6.16162109 141.29516602 C5.86263412 140.57886017 5.56364716 139.86255432 5.25559998 139.12454224 C4.25539033 136.72079999 3.27108935 134.31086235 2.28662109 131.90063477 C1.58062244 130.19459303 0.87365206 128.48895314 0.16577148 126.78369141 C-1.34822925 123.13088928 -2.85534791 119.47534934 -4.35742188 115.81762695 C-6.71358802 110.08173738 -9.0891648 104.35401199 -11.46728516 98.62719727 C-18.81899755 80.90937974 -26.11821998 63.16974531 -33.34640503 45.40115356 C-34.00179403 43.79037456 -34.65796856 42.17991492 -35.31497192 40.5697937 C-36.21359349 38.36609425 -37.10860669 36.16096686 -38.00244141 33.95532227 C-38.26501236 33.31280014 -38.52758331 32.67027802 -38.79811096 32.00828552 C-41.77641968 24.62899523 -43.15237706 18.06949548 -40.15087891 10.46313477 C-37.41307163 4.86175521 -33.51996373 1.52406188 -28.02587891 -1.28686523 C-18.65899814 -3.05420123 -9.2833937 -1.62445532 0 0 Z " fill="#326CE5" transform="translate(746.71337890625,687.911865234375)"/>
<path d="M0 0 C0.06562826 7.28845438 -0.10656351 14.52499545 -0.51904297 21.80126953 C-0.57435181 22.8192009 -0.62966064 23.83713226 -0.68664551 24.88591003 C-0.86864723 28.21839456 -1.05516488 31.55060624 -1.2421875 34.8828125 C-1.37203328 37.22532522 -1.50176146 39.56784447 -1.63137817 41.91036987 C-1.90332802 46.8108107 -2.1777032 51.71110875 -2.45361328 56.61132812 C-2.80440497 62.8474107 -3.14764307 69.08388297 -3.48882866 75.32049751 C-3.75458832 80.15785186 -4.02521091 84.99492554 -4.29715347 89.83193588 C-4.42557107 92.12881163 -4.55235064 94.42577964 -4.67736435 96.72284317 C-6.96508897 138.62090208 -6.96508897 138.62090208 -15.4375 146.375 C-21.37948602 150.98818746 -26.57549075 151.72720312 -34 151 C-36.73742199 150.15388775 -38.58081957 149.40110866 -41 148 C-42.1446875 147.33871094 -42.1446875 147.33871094 -43.3125 146.6640625 C-49.75893404 142.7309703 -55.7415918 138.24827251 -61.74609375 133.68579102 C-67.68424627 129.18970156 -73.78153121 124.96744659 -79.9375 120.77734375 C-86.30538122 116.44022543 -92.57705956 111.96589041 -98.86328125 107.51171875 C-100.97928005 106.01465927 -103.09842052 104.52216813 -105.21875 103.03125 C-113.35976152 97.30417046 -121.4522969 91.51569389 -129.51098633 85.67333984 C-135.94268406 81.01983821 -142.44681887 76.48070866 -149 72 C-147.64383105 68.89826705 -146.21011148 67.04562103 -143.625 64.875 C-142.90441406 64.26785156 -142.18382812 63.66070312 -141.44140625 63.03515625 C-140.63574219 62.36355469 -139.83007812 61.69195312 -139 61 C-138.14277344 60.25621094 -137.28554688 59.51242187 -136.40234375 58.74609375 C-102.46778147 29.6659943 -46.28197904 -2.60632305 0 0 Z " fill="#326CE5" transform="translate(585,364)"/>
<path d="M0 0 C5.2190029 3.21106876 9.4656261 7.07530166 13.875 11.3125 C18.56391623 15.789105 23.29346973 20.18308191 28.19189453 24.43041992 C30.48839527 26.42396614 32.74570017 28.45894475 35 30.5 C37.95869751 33.17048344 40.92926472 35.82298058 43.9375 38.4375 C48.13303221 42.09057956 52.23373553 45.84505549 56.34375 49.59375 C58.54352741 51.58648953 60.75955218 53.5533814 63 55.5 C67.17868079 59.13065708 71.25816304 62.86718576 75.34765625 66.59765625 C77.52460996 68.56941844 79.71838674 70.51365337 81.9375 72.4375 C85.38607181 75.44431261 88.79704081 78.49046173 92.1875 81.5625 C92.68693115 82.00972412 93.1863623 82.45694824 93.70092773 82.91772461 C99.33446507 88.04875304 104.40257288 92.96355047 105.3359375 100.83203125 C105.44711505 109.31487796 104.27784694 114.56606511 98.375 120.75 C89.16998248 127.55994974 76.14929713 129.7014936 65.3203125 132.796875 C63.3837331 133.35447795 61.44728334 133.91253134 59.51095581 134.4710083 C54.41689536 135.93890213 49.32107178 137.40058 44.22485352 138.86096191 C39.13707861 140.32013592 34.05104176 141.78534091 28.96484375 143.25 C20.25197125 145.75825537 11.53698191 148.2590461 2.8208046 150.75579071 C-2.08797933 152.16262771 -6.99505542 153.57511087 -11.89958763 154.99670029 C-13.93768565 155.58732684 -15.97621807 156.17642616 -18.0149231 156.76495361 C-20.38730536 157.45027483 -22.75885414 158.13849123 -25.12936401 158.83026123 C-26.14386627 159.12249573 -27.15836853 159.41473022 -28.20361328 159.71582031 C-29.06737579 159.96664368 -29.93113831 160.21746704 -30.82107544 160.47589111 C-33 161 -33 161 -36 161 C-36.85829097 155.77715326 -37.17247876 150.73385852 -37.203125 145.4453125 C-37.21018463 144.63509644 -37.21724426 143.82488037 -37.22451782 142.9901123 C-37.56180067 92.77510629 -28.26849194 42.56066244 0 0 Z " fill="#326CE5" transform="translate(396,485)"/>
<path d="M0 0 C27.00523055 25.27560127 37.79901594 83.10587985 39.10159302 118.78256226 C39.23864329 125.73034147 39.18413026 132.67663718 39.125 139.625 C39.11493714 141.71093314 39.10581721 143.79687105 39.09765625 145.8828125 C39.07593453 150.92199595 39.04159222 155.96094301 39 161 C25.81300717 157.83891334 12.79519277 154.15656438 -0.234375 150.40625 C-2.44715718 149.7711971 -4.6599877 149.1363126 -6.87286377 148.50158691 C-11.48232205 147.17877159 -16.0912174 145.85401791 -20.69970703 144.52783203 C-26.5777993 142.83644944 -32.4572492 141.14984266 -38.33712387 139.46466827 C-42.89666319 138.15735104 -47.45548901 136.84755989 -52.01410675 135.53703308 C-54.18102038 134.9143839 -56.34814582 134.2924713 -58.5154953 133.67134094 C-94.37340744 123.39008574 -94.37340744 123.39008574 -100.375 116.125 C-103.33398521 110.43464382 -105.13623875 104.43469942 -104 98 C-100.42611934 88.52506057 -92.58740171 82.26742023 -85.125 75.83984375 C-81.02622316 72.29108659 -77.02361823 68.63344919 -73 65 C-63.51127959 56.43139793 -63.51127959 56.43139793 -59.0625 52.5625 C-54.86557919 48.90821138 -50.7634724 45.15255027 -46.65234375 41.40234375 C-44.47539004 39.43058156 -42.28161326 37.48634663 -40.0625 35.5625 C-36.6531142 32.6011649 -33.3220569 29.55847514 -30 26.5 C-26.04678943 22.86083812 -22.06054416 19.26913827 -18 15.75 C-15.60109523 13.65095833 -13.23870042 11.51358609 -10.875 9.375 C-7.3154386 6.16150707 -3.71560689 3.03115299 0 0 Z " fill="#326CE5" transform="translate(836,485)"/>
<path d="M0 0 C10.3188597 7.78604868 15.79668582 22.60024209 21.73046875 33.71337891 C25.65049202 41.04885769 29.66258347 48.32121014 33.78125 55.546875 C38.191458 63.28794887 42.49692981 71.07645798 46.71875 78.921875 C56.69838545 98.07188748 56.69838545 98.07188748 67.94873047 116.46411133 C69.21875 118.921875 69.21875 118.921875 68.90625 121.234375 C68.5659375 122.0696875 68.5659375 122.0696875 68.21875 122.921875 C57.54174827 126.1970289 46.90656234 129.19029449 35.90625 131.171875 C35.07399902 131.32237305 34.24174805 131.47287109 33.38427734 131.62792969 C30.66688798 132.0949072 27.94573035 132.51457097 25.21875 132.921875 C24.07365967 133.10065186 22.92856934 133.27942871 21.7487793 133.46362305 C10.3783071 135.08220843 -0.87101618 135.28006947 -12.34375 135.234375 C-13.31713318 135.23221985 -14.29051636 135.2300647 -15.293396 135.22784424 C-29.64190554 135.17686163 -43.68116334 134.81801364 -57.78125 131.921875 C-59.40015137 131.59195557 -59.40015137 131.59195557 -61.05175781 131.25537109 C-72.58969196 128.84665367 -83.77778317 126.1957129 -94.78125 121.921875 C-93.15552018 115.91764585 -90.06340656 110.88497723 -86.96875 105.546875 C-82.29801483 97.39393995 -77.72779758 89.19922131 -73.28125 80.921875 C-68.52098564 72.07473205 -63.6338635 63.30981079 -58.6628418 54.57958984 C-54.71067881 47.6187795 -50.88401146 40.59692866 -47.09375 33.546875 C-44.99684443 29.66789671 -42.89254505 25.79303928 -40.78125 21.921875 C-40.08273926 20.63917725 -40.08273926 20.63917725 -39.37011719 19.33056641 C-29.2881589 0.97613836 -29.2881589 0.97613836 -19.71875 -3.515625 C-12.25129997 -4.94556224 -6.43675738 -3.8959321 0 0 Z " fill="#326CE5" transform="translate(629.78125,743.078125)"/>
<path d="M0 0 C4.48400552 4.83800596 6.28860499 8.51404597 6.3125 15.125 C6.32925781 16.17945313 6.34601563 17.23390625 6.36328125 18.3203125 C5.38411091 28.23836047 0.90871042 37.29587758 -2.97790527 46.36428833 C-4.77300323 50.55429737 -6.54952806 54.75218508 -8.328125 58.94921875 C-8.70487366 59.83717636 -9.08162231 60.72513397 -9.4697876 61.63999939 C-13.96602204 72.25205101 -18.35859107 82.90674761 -22.75 93.5625 C-23.55637531 95.51807514 -24.36277163 97.47364161 -25.16918945 99.42919922 C-26.34365743 102.27768916 -27.51796324 105.12624555 -28.69184875 107.97497559 C-32.18217149 116.44505986 -35.6830579 124.91074963 -39.1875 133.375 C-39.68668945 134.58099854 -40.18587891 135.78699707 -40.70019531 137.02954102 C-41.79998072 139.68642261 -42.89990186 142.34324788 -44 145 C-49.35854144 143.03029181 -53.44631534 140.00744069 -58 136.625 C-58.84216064 136.00230225 -59.68432129 135.37960449 -60.55200195 134.73803711 C-66.82234694 130.03363472 -72.64188944 125.02207572 -78.2890625 119.59375 C-80.49082848 117.48716122 -82.72310599 115.51040358 -85.0625 113.5625 C-95.30908057 104.65055808 -103.90542054 93.84880985 -112 83 C-112.49000488 82.34515625 -112.98000977 81.6903125 -113.48486328 81.015625 C-147 35.85475932 -147 35.85475932 -147 16 C-118.97217479 10.74736067 -90.93141746 5.68621562 -62.76393127 1.23771667 C-57.46624797 0.39941818 -52.17362216 -0.46512722 -46.88365173 -1.3507843 C-43.38107515 -1.93622452 -39.87699305 -2.51230545 -36.37265015 -3.08706665 C-34.73266924 -3.35820263 -33.09333498 -3.63328528 -31.45474243 -3.91268921 C-9.45756838 -7.65612678 -9.45756838 -7.65612678 0 0 Z " fill="#326CE5" transform="translate(522,692)"/>
<path d="M0 0 C8.29140903 0.5244895 16.16364256 1.65301356 24.25 3.5625 C25.36826172 3.82498535 26.48652344 4.0874707 27.63867188 4.35791016 C45.75034003 8.74823152 63.26087003 14.79957108 80 23 C80.83096191 23.40589355 81.66192383 23.81178711 82.51806641 24.22998047 C104.37586231 35.02681329 124.22140207 48.41651359 141.9152832 65.20507812 C144.72141271 67.92356967 144.72141271 67.92356967 148 70 C146.85305404 73.44083787 146.1988862 73.81913606 143.2734375 75.75 C142.49661621 76.27021729 141.71979492 76.79043457 140.91943359 77.32641602 C140.07977051 77.87869873 139.24010742 78.43098145 138.375 79 C136.62363421 80.17374589 134.87364864 81.34955367 133.125 82.52734375 C131.81789063 83.40688721 131.81789063 83.40688721 130.484375 84.30419922 C127.05487471 86.64512974 123.70732827 89.08597835 120.375 91.5625 C113.05217957 96.98954988 105.61604761 102.24587492 98.15722656 107.48388672 C94.60070593 109.98343325 91.05065901 112.49213758 87.5 115 C86.08336492 116.00004474 84.66669823 117.00004472 83.25 118 C82.54875 118.495 81.8475 118.99 81.125 119.5 C79 121 76.875 122.5 74.75 124 C74.04834717 124.4954834 73.34669434 124.9909668 72.6237793 125.50146484 C71.21193936 126.49765677 69.7993452 127.49278066 68.38598633 128.48681641 C64.76343215 131.0366867 61.15727438 133.60579523 57.57421875 136.2109375 C35.06286158 152.50942924 35.06286158 152.50942924 25 151 C18.48291432 149.5629637 14.0083493 146.31611313 10 141 C6.04863231 133.76306283 5.93302681 125.37626434 5.60546875 117.30859375 C5.53840029 115.742181 5.47117079 114.17577514 5.40380859 112.609375 C5.3689032 111.77212891 5.3339978 110.93488281 5.29803467 110.07226562 C4.65001857 94.62579465 3.86160728 79.18861303 2.98046875 63.75390625 C2.93540129 62.96325712 2.89033382 62.17260799 2.84390068 61.3579998 C2.38758626 53.36088161 1.92625575 45.36406934 1.45729923 37.36768246 C1.27976603 34.33073308 1.10467646 31.29364562 0.93003273 28.25652885 C0.84784622 26.83843543 0.76450155 25.42040855 0.67987633 24.00245857 C0.20185472 15.99119464 -0.1210592 8.02621159 0 0 Z " fill="#326CE5" transform="translate(649,364)"/>
<path d="M0 0 C0.86462357 -0.01710022 1.72924713 -0.03420044 2.62007141 -0.05181885 C4.4515992 -0.08015755 6.2832797 -0.09976653 8.11499023 -0.11132812 C10.90039318 -0.14036038 13.67905757 -0.233331 16.46289062 -0.328125 C29.38497911 -0.56235851 29.38497911 -0.56235851 34.09155273 2.41333008 C36.14664907 4.70069296 37.68523212 6.96123053 39.23828125 9.609375 C40.22365562 10.86760052 41.22642228 12.1124959 42.25 13.33984375 C43.14499045 14.4898099 44.03699297 15.6421086 44.92578125 16.796875 C45.82462794 17.95772317 46.72436108 19.11788552 47.625 20.27734375 C48.05216309 20.84243652 48.47932617 21.4075293 48.91943359 21.98974609 C50.40472232 23.88509966 50.40472232 23.88509966 53.1328125 26.34765625 C55.83127973 30.52802756 55.42008527 32.66899385 54.70605469 37.45996094 C54.20081129 40.86165185 54.03358889 44.21571859 53.83984375 47.6484375 C51.83822605 66.31556565 51.83822605 66.31556565 45.53521729 72.19909668 C40.63596567 75.90267674 35.2548872 78.58782349 29.67578125 81.109375 C28.87658264 81.4723468 28.07738403 81.8353186 27.25396729 82.20928955 C24.93012715 83.23320106 22.59412897 84.2026996 20.234375 85.140625 C19.1655584 85.57095535 19.1655584 85.57095535 18.07514954 86.00997925 C13.33763112 87.7214058 10.80186244 87.62030352 6.23828125 85.609375 C4.55532959 85.0824707 4.55532959 85.0824707 2.83837891 84.54492188 C-20.81106833 76.73800407 -20.81106833 76.73800407 -25.9765625 68.72479248 C-30.7619108 58.84123027 -31.68525668 47.3880237 -32.76171875 36.609375 C-32.9819873 35.525354 -33.20225586 34.44133301 -33.42919922 33.32446289 C-33.76171875 30.609375 -33.76171875 30.609375 -31.83984375 27.671875 C-30.91351747 26.63615336 -29.96954465 25.61603742 -29.01171875 24.609375 C-27.99354927 23.47884892 -26.97800863 22.34595081 -25.96484375 21.2109375 C-25.43697266 20.62602539 -24.90910156 20.04111328 -24.36523438 19.43847656 C-21.19916904 15.82700253 -18.3105356 11.9940059 -15.37988281 8.19140625 C-10.36420787 1.72392412 -8.31458013 0.12705124 0 0 Z " fill="#326CE5" transform="translate(605.76171875,578.390625)"/>
</svg>
