<?xml version="1.0" encoding="UTF-8"?>
<svg version="1.1" xmlns="http://www.w3.org/2000/svg" width="400" height="400">
<path d="M0 0 C132 0 264 0 400 0 C400 132 400 264 400 400 C268 400 136 400 0 400 C0 268 0 136 0 0 Z " fill="#C7F068" transform="translate(0,0)"/>
<path d="M0 0 C1.4217881 -0.01902626 1.4217881 -0.01902626 2.87229919 -0.03843689 C3.89420853 -0.03550125 4.91611786 -0.03256561 5.96899414 -0.02954102 C7.02067276 -0.03478287 8.07235138 -0.04002472 9.15589905 -0.04542542 C11.38094194 -0.05185138 13.60601878 -0.05050124 15.83105469 -0.04199219 C19.23767574 -0.03348839 22.64261723 -0.06222716 26.04907227 -0.09399414 C28.20987905 -0.09560635 30.37068882 -0.09502825 32.53149414 -0.09204102 C33.55137924 -0.10327499 34.57126434 -0.11450897 35.62205505 -0.12608337 C42.64484894 -0.05680921 42.64484894 -0.05680921 45.82421875 2.12426758 C47.37831426 4.49824825 48.74350309 6.82147742 49.98071289 9.37670898 C50.45814941 10.34962891 50.93558594 11.32254883 51.42749023 12.32495117 C51.92716309 13.36167969 52.42683594 14.3984082 52.94165039 15.46655273 C54.00767818 17.64055468 55.0754094 19.81372211 56.14477539 21.98608398 C56.94238281 23.60957764 56.94238281 23.60957764 57.75610352 25.26586914 C59.99485564 29.76789039 62.3313558 34.21484126 64.69165039 38.65405273 C68.33698426 45.52221936 71.88922228 52.4238028 75.31665039 59.40405273 C80.19978128 50.14555015 85.07258334 40.88194115 89.90795898 31.59838867 C92.37361258 26.86489897 94.84416911 22.13397907 97.31665039 17.40405273 C97.73817383 16.59693848 98.15969727 15.78982422 98.59399414 14.95825195 C99.70566872 12.83376893 100.82249948 10.71210452 101.94165039 8.59155273 C102.55266602 7.43010742 103.16368164 6.26866211 103.79321289 5.07202148 C105.31665039 2.40405273 105.31665039 2.40405273 107.31665039 0.40405273 C110.15030647 0.1918539 112.8837306 0.10008704 115.71899414 0.10327148 C116.55249893 0.09898636 117.38600372 0.09470123 118.24476624 0.09028625 C120.00919689 0.08453839 121.77365124 0.08404605 123.53808594 0.08837891 C126.24007572 0.09153629 128.94096817 0.06809529 131.64282227 0.04272461 C133.35571151 0.04045143 135.0686037 0.03974821 136.78149414 0.04077148 C137.59093979 0.03156174 138.40038544 0.02235199 139.23435974 0.01286316 C144.80724565 0.05889423 144.80724565 0.05889423 147.02970886 1.56477356 C148.84633334 4.16106833 148.69766607 6.05095307 148.70483398 9.20483398 C148.71429047 10.39616943 148.72374695 11.58750488 148.73348999 12.81494141 C148.72438095 14.74623901 148.72438095 14.74623901 148.71508789 16.71655273 C148.71710894 18.05029459 148.72002065 19.38403537 148.7237854 20.71777344 C148.72820735 23.51206999 148.72178229 26.30607872 148.70776367 29.1003418 C148.69067133 32.68179739 148.70051328 36.26257855 148.71848106 39.8440094 C148.7293227 42.59783 148.72587093 45.35149075 148.71809769 48.10531616 C148.71512368 50.06793658 148.72423331 52.03056322 148.73348999 53.99316406 C148.71930527 55.78016724 148.71930527 55.78016724 148.70483398 57.60327148 C148.7024472 58.65345459 148.70006042 59.7036377 148.69760132 60.78564453 C148.31665039 63.40405273 148.31665039 63.40405273 146.98403931 65.23901367 C144.3737071 67.06290668 141.88937367 66.85795841 138.75415039 66.96655273 C133.99260664 66.87795557 133.99260664 66.87795557 130.31665039 69.40405273 C130.01167105 71.36849465 130.01167105 71.36849465 130.05786133 73.63842773 C130.04840485 74.9498877 130.04840485 74.9498877 130.03875732 76.2878418 C130.04280579 77.23369141 130.04685425 78.17954102 130.05102539 79.15405273 C130.04815521 80.60763184 130.04815521 80.60763184 130.04522705 82.09057617 C130.0438646 84.14168558 130.04756521 86.19280359 130.0559082 88.24389648 C130.0666068 91.39122813 130.05601486 94.53798894 130.04321289 97.68530273 C130.04453447 99.67488733 130.04709684 101.66447158 130.05102539 103.65405273 C130.0449527 105.07282715 130.0449527 105.07282715 130.03875732 106.52026367 C130.04506165 107.39457031 130.05136597 108.26887695 130.05786133 109.16967773 C130.05945251 109.94085938 130.0610437 110.71204102 130.06268311 111.5065918 C130.1535762 113.64567857 130.1535762 113.64567857 132.31665039 115.40405273 C135.62963469 115.75255574 138.92154905 115.8473509 142.25024414 115.96264648 C145.31665039 116.40405273 145.31665039 116.40405273 146.98339844 117.45507812 C149.02957459 120.44621972 148.74464913 123.52994273 148.71508789 127.02905273 C148.71939316 128.14401123 148.71939316 128.14401123 148.7237854 129.28149414 C148.72582515 130.85165164 148.7203014 132.4218346 148.70776367 133.99194336 C148.69170742 136.39551606 148.70761391 138.79740734 148.72680664 141.20092773 C148.72482419 142.72697311 148.72098048 144.25301744 148.71508789 145.77905273 C148.72116058 146.49786621 148.72723328 147.21667969 148.73348999 147.95727539 C148.66392997 152.89151835 148.66392997 152.89151835 147.17214966 155.09317017 C144.50349033 156.9785382 142.48967238 156.78520845 139.24047852 156.79223633 C137.36338196 156.80642105 137.36338196 156.80642105 135.44836426 156.82089233 C134.08153975 156.81552263 132.71471813 156.80936968 131.34790039 156.80249023 C129.94689787 156.80451116 128.54589638 156.80742276 127.14489746 156.81118774 C124.20937073 156.81561027 121.27411793 156.80918269 118.33862305 156.79516602 C114.57557623 156.77807374 110.81317128 156.78791537 107.05014801 156.80588341 C104.15736046 156.81672343 101.26472512 156.813274 98.37193298 156.80550003 C96.98445052 156.80349861 95.59695425 156.80595531 94.20948792 156.81293869 C92.27060205 156.82055579 90.33166774 156.80688767 88.39282227 156.79223633 C87.28934448 156.78984955 86.1858667 156.78746277 85.0489502 156.78500366 C82.31665039 156.40405273 82.31665039 156.40405273 80.46115112 155.09317017 C78.54161464 152.26021215 78.89029473 149.08367376 78.91821289 145.77905273 C78.91534271 145.03574707 78.91247253 144.29244141 78.90951538 143.52661133 C78.90747563 141.95645383 78.91299939 140.38627087 78.92553711 138.81616211 C78.94159336 136.41258941 78.92568687 134.01069813 78.90649414 131.60717773 C78.90847659 130.08113236 78.9123203 128.55508802 78.91821289 127.02905273 C78.9121402 126.31023926 78.9060675 125.59142578 78.89981079 124.85083008 C78.94040667 121.97115977 78.99250714 119.89871625 80.59521484 117.45288086 C84.1975505 115.25806679 89.11255381 115.92447582 93.24438477 115.87670898 C95.27372284 115.81717706 97.29789131 115.61938704 99.31665039 115.40405273 C101.58786748 111.9972271 101.56133926 110.82608089 101.54370117 106.83105469 C101.54355011 105.69009842 101.54339905 104.54914215 101.54324341 103.37361145 C101.53292084 102.14228989 101.52259827 100.91096832 101.51196289 99.64233398 C101.509133 98.38140427 101.5063031 97.12047455 101.50338745 95.82133484 C101.49408164 92.47244851 101.47611742 89.12383483 101.45397949 85.77502441 C101.43350425 82.35646926 101.42438215 78.93788593 101.41430664 75.51928711 C101.39223219 68.81413354 101.35874401 62.10910888 101.31665039 55.40405273 C100.98521027 56.04187683 100.65377014 56.67970093 100.31228638 57.33685303 C98.7757919 60.29212494 97.23763433 63.24652833 95.69946289 66.20092773 C95.17843994 67.20365723 94.65741699 68.20638672 94.12060547 69.23950195 C89.60343395 77.911076 84.93426714 86.49351881 80.21508789 95.05639648 C78.24005859 98.6644959 76.33595264 102.29935654 74.48071289 105.97045898 C74.03099121 106.85378906 73.58126953 107.73711914 73.11791992 108.6472168 C72.27120174 110.31904834 71.43560511 111.99657483 70.61303711 113.68041992 C70.23679199 114.42066406 69.86054688 115.1609082 69.47290039 115.92358398 C68.99046875 116.89968628 68.99046875 116.89968628 68.49829102 117.89550781 C67.31665039 119.40405273 67.31665039 119.40405273 65.36938477 120.30908203 C63.31665039 120.40405273 63.31665039 120.40405273 61.80873108 119.13044739 C60.33490448 117.42517341 59.38289969 115.8931938 58.390625 113.87670898 C58.04273422 113.17747314 57.69484344 112.4782373 57.33641052 111.7578125 C56.96766312 111.00169678 56.59891571 110.24558105 56.21899414 109.46655273 C55.82523087 108.67240967 55.43146759 107.8782666 55.02577209 107.06005859 C53.7628471 104.51083637 52.50804821 101.95772563 51.25415039 99.40405273 C49.62074214 96.08990986 47.98362911 92.77761918 46.34399414 89.46655273 C45.9386142 88.64711182 45.53323425 87.8276709 45.11557007 86.98339844 C40.6725757 78.04124257 36.00823715 69.21768046 31.31665039 60.40405273 C31.29138435 68.07616476 31.27381916 75.74826613 31.26171875 83.42041016 C31.25667662 86.03271892 31.24984314 88.64502485 31.24121094 91.25732422 C31.22914003 95.00285542 31.22342104 98.74834945 31.21899414 102.49389648 C31.21383286 103.66991928 31.20867157 104.84594208 31.20335388 106.05760193 C31.20327835 107.138647 31.20320282 108.21969208 31.203125 109.33349609 C31.20090439 110.29057968 31.19868378 111.24766327 31.19639587 112.23374939 C31.0735254 114.38322897 31.0735254 114.38322897 32.31665039 115.40405273 C35.61442207 115.64934154 38.91123448 115.78830351 42.21508789 115.92749023 C45.31665039 116.40405273 45.31665039 116.40405273 46.9855957 117.45727539 C49.02989666 120.44723428 48.74463319 123.53183007 48.71508789 127.02905273 C48.71795807 127.7723584 48.72082825 128.51566406 48.7237854 129.28149414 C48.72582515 130.85165164 48.7203014 132.4218346 48.70776367 133.99194336 C48.69170742 136.39551606 48.70761391 138.79740734 48.72680664 141.20092773 C48.72482419 142.72697311 48.72098048 144.25301744 48.71508789 145.77905273 C48.72419693 146.85727295 48.72419693 146.85727295 48.73348999 147.95727539 C48.6634791 152.92350045 48.6634791 152.92350045 47.0975647 155.09317017 C44.75782978 156.81538538 43.32530312 156.78432685 40.43383789 156.79223633 C39.44270996 156.80169281 38.45158203 156.81114929 37.43041992 156.82089233 C36.36162598 156.81481964 35.29283203 156.80874695 34.19165039 156.80249023 C32.54398682 156.8067955 32.54398682 156.8067955 30.86303711 156.81118774 C28.53962692 156.81323009 26.21619961 156.80768836 23.89282227 156.79516602 C20.33058327 156.77911551 16.76947897 156.79500971 13.20727539 156.81420898 C10.95206455 156.81222658 8.69685441 156.80838298 6.44165039 156.80249023 C5.37285645 156.80856293 4.3040625 156.81463562 3.20288086 156.82089233 C1.71618896 156.80670761 1.71618896 156.80670761 0.19946289 156.79223633 C-0.67307129 156.78984955 -1.54560547 156.78746277 -2.44458008 156.78500366 C-4.68334961 156.40405273 -4.68334961 156.40405273 -6.46525574 155.26528931 C-8.2362492 152.5592271 -8.0574707 150.45438201 -8.05566406 147.23608398 C-8.06189285 145.96466553 -8.06812164 144.69324707 -8.07453918 143.38330078 C-8.06585109 141.99438078 -8.05653311 140.60546461 -8.04663086 139.21655273 C-8.04611219 137.79313152 -8.04663015 136.36970957 -8.04814148 134.94628906 C-8.04805178 131.96367697 -8.03762683 128.98133529 -8.01953125 125.9987793 C-7.99684393 122.17530468 -7.99630011 118.35222518 -8.0030489 114.52870178 C-8.00639013 111.58960457 -7.99975591 108.65059746 -7.98991966 105.71151733 C-7.98607003 104.30171175 -7.98491847 102.89189613 -7.98650551 101.48208618 C-7.98687628 99.51204175 -7.97277711 97.54201059 -7.95800781 95.57202148 C-7.95109673 93.89015747 -7.95109673 93.89015747 -7.94404602 92.17431641 C-7.68334961 89.40405273 -7.68334961 89.40405273 -5.68334961 86.40405273 C-2.74975586 85.99780273 -2.74975586 85.99780273 0.75415039 85.90405273 C5.17382222 85.96214959 5.17382222 85.96214959 8.98304749 84.13220215 C10.60494181 82.03047027 10.70075446 80.97862795 10.72070312 78.34741211 C10.7333873 77.53647095 10.74607147 76.72552979 10.75914001 75.89001465 C10.75620438 75.01808472 10.75326874 74.14615479 10.75024414 73.24780273 C10.75810692 71.89978577 10.75810692 71.89978577 10.76612854 70.52453613 C10.77255086 68.62484775 10.77120902 66.72511961 10.76269531 64.82543945 C10.75418162 61.91472814 10.78294885 59.0059765 10.81469727 56.09545898 C10.81630923 54.25040749 10.81573183 52.40535251 10.81274414 50.56030273 C10.82397812 49.6883728 10.8352121 48.81644287 10.8467865 47.91809082 C10.9051578 43.19555295 10.9051578 43.19555295 8.46972656 39.359375 C5.65507129 38.11050936 3.26245808 37.95849996 0.19165039 37.84155273 C-5.47443241 37.61296993 -5.47443241 37.61296993 -7.68334961 35.40405273 C-8.08363379 30.86144996 -8.01235611 26.30438633 -7.99902344 21.74609375 C-7.99586638 19.47859527 -8.01930721 17.21240514 -8.04467773 14.94506836 C-8.04695102 13.50561688 -8.04765409 12.06616189 -8.04663086 10.62670898 C-8.04961182 9.31452393 -8.05259277 8.00233887 -8.05566406 6.65039062 C-7.68334961 3.40405273 -7.68334961 3.40405273 -6.45278931 1.72640991 C-4.17094912 0.02111995 -2.83356453 0.01835722 0 0 Z " fill="#043F2E" transform="translate(129.683349609375,121.595947265625)"/>
</svg>
