<?xml version="1.0" encoding="UTF-8"?>
<svg version="1.1" xmlns="http://www.w3.org/2000/svg" width="280" height="280">
<path d="M0 0 C3.08698797 -0.30390136 5.96955928 -0.41982496 9.05859375 -0.3984375 C9.95868668 -0.40130768 10.8587796 -0.40417786 11.78614807 -0.40713501 C13.69182971 -0.40917859 15.59753219 -0.40362823 17.50317383 -0.39111328 C20.42251511 -0.37508229 23.34046796 -0.39094224 26.25976562 -0.41015625 C28.10937806 -0.4081735 29.95898963 -0.40432918 31.80859375 -0.3984375 C32.68366074 -0.40451019 33.55872772 -0.41058289 34.46031189 -0.4168396 C35.68156517 -0.40265488 35.68156517 -0.40265488 36.92749023 -0.38818359 C38.00098976 -0.38460342 38.00098976 -0.38460342 39.09617615 -0.38095093 C41.59290709 0.11863939 42.44725749 1.01133081 44 3 C44.83964521 5.48155415 45.56852738 7.91425719 46.25 10.4375 C51.41332604 27.9746292 62.31267185 41.19186338 78.21972656 50.06591797 C94.55984876 58.63932821 113.21916668 60.579435 131.03955078 55.63818359 C148.26950878 50.02932802 163.4281891 38.03835917 172 22 C173.40077595 18.59424428 174.55813237 15.12886951 175.6875 11.625 C176.2694947 9.84463108 176.85649905 8.06588964 177.44921875 6.2890625 C177.70018311 5.51256348 177.95114746 4.73606445 178.2097168 3.93603516 C179 2 179 2 181 0 C184.06165064 -0.21240485 187.03051818 -0.30395299 190.09375 -0.30078125 C190.9962146 -0.30506638 191.8986792 -0.3093515 192.82849121 -0.31376648 C194.73835409 -0.31951473 196.64823886 -0.32000641 198.55810547 -0.31567383 C201.48833333 -0.31251259 204.41755324 -0.33597099 207.34765625 -0.36132812 C209.20051955 -0.36360085 211.05338558 -0.36430474 212.90625 -0.36328125 C213.78647827 -0.372491 214.66670654 -0.38170074 215.5736084 -0.39118958 C218.04101562 -0.37231445 218.04101562 -0.37231445 222 0 C225.09835297 4.64752945 224.6618236 8.53995526 224 14 C220.45171816 30.75084721 213.51685083 46.4719141 203 60 C202.00226563 61.31871094 202.00226563 61.31871094 200.984375 62.6640625 C182.3651665 86.4403899 156.57555909 100.38893872 127 105.3125 C95.37519211 109.09728714 64.73576277 100.88605958 39.58886719 81.26464844 C17.56162681 63.73221064 3.72412865 39.47581753 -2 12 C-2.52118062 7.31580876 -2.70182478 4.05273717 0 0 Z " fill="#5167BA" transform="translate(29,149)"/>
<path d="M0 0 C1.38862478 1.0446303 2.76470381 2.10623892 4.125 3.1875 C4.72699219 3.59355469 5.32898438 3.99960938 5.94921875 4.41796875 C14.69152523 10.80279933 19.86336322 22.61004678 21.78515625 32.97265625 C23.12572378 45.65411693 20.06211767 57.43455786 12.3125 67.625 C4.14456551 77.0249693 -6.74467336 83.35530887 -19.34765625 84.390625 C-30.99987018 84.6015248 -40.29880099 81.8021708 -49.875 75.1875 C-51.2053125 74.32125 -51.2053125 74.32125 -52.5625 73.4375 C-61.55817456 64.68495178 -67.0719262 52.89814317 -67.25 40.375 C-67.30497635 27.80284666 -63.47441221 17.52858645 -54.875 8.1875 C-53.7303125 6.8571875 -53.7303125 6.8571875 -52.5625 5.5 C-38.31520882 -6.75929706 -16.44254317 -10.67224693 0 0 Z " fill="#596FC2" transform="translate(162.875,100.8125)"/>
<path d="M0 0 C2.453125 2.3984375 2.453125 2.3984375 4 5 C3.8984282 9.73158773 2.43426007 12.13878773 -0.87364197 15.46577454 C-1.6767556 16.23488411 -1.6767556 16.23488411 -2.49609375 17.01953125 C-3.31920799 17.8355909 -3.31920799 17.8355909 -4.15895081 18.6681366 C-5.90706474 20.3949796 -7.67206646 22.10338704 -9.4375 23.8125 C-10.62153136 24.98001677 -11.80448664 26.14862591 -12.98632812 27.31835938 C-22.61646057 36.79753082 -22.61646057 36.79753082 -26.5625 37.375 C-30.67985953 36.92583351 -33.06133761 35.45402319 -36.578125 33.37109375 C-51.56700144 24.88545564 -70.18135568 23.45030822 -86.734375 27.80078125 C-91.51304609 29.55562817 -96.00117883 31.83000684 -100.44604492 34.30664062 C-104.56632315 36.55149988 -107.33248876 37.68046948 -112 37 C-114.41812293 35.14241889 -116.36456209 33.40789977 -118.45703125 31.234375 C-119.33967903 30.34966522 -119.33967903 30.34966522 -120.24015808 29.44708252 C-121.47838025 28.19981488 -122.70932035 26.9452811 -123.93334961 25.68408203 C-125.80774891 23.75488997 -127.70508056 21.85082244 -129.60742188 19.94921875 C-130.80871694 18.73317717 -132.00863514 17.51577357 -133.20703125 16.296875 C-133.77363968 15.7269281 -134.34024811 15.1569812 -134.92402649 14.56976318 C-139.48793148 9.83823586 -139.48793148 9.83823586 -140 6 C-135.20804249 -4.78190439 -119.43711754 -10.67349955 -109.07421875 -14.75927734 C-101.55909712 -17.53979705 -93.94013407 -19.84065954 -86 -21 C-84.87658203 -21.16628906 -84.87658203 -21.16628906 -83.73046875 -21.3359375 C-54.41931212 -24.93299486 -23.63159439 -18.07497625 0 0 Z " fill="#6379CD" transform="translate(208,47)"/>
<path d="M0 0 C4.14788582 0.90288699 6.0345802 4.16578478 8.2902832 7.49853516 C17.74280952 22.46063454 29.48776313 43.222743 26.2902832 61.49853516 C25.00645447 63.11561584 25.00645447 63.11561584 23.2902832 64.49853516 C20.32475947 64.80918404 17.57366592 64.94268587 14.60668945 64.93212891 C13.32881813 64.93999168 13.32881813 64.93999168 12.02513123 64.94801331 C10.22379648 64.95443519 8.42241982 64.95309433 6.62109375 64.94458008 C3.86618231 64.93607652 1.11334874 64.96481685 -1.64135742 64.99658203 C-3.39200784 64.99819432 -5.14266193 64.99761599 -6.89331055 64.99462891 C-7.71633163 65.00586288 -8.53935272 65.01709686 -9.38731384 65.02867126 C-13.14783184 64.98290566 -15.08547369 64.95677387 -18.18115234 62.68432617 C-20.28332781 59.67829248 -21.15573247 56.49720002 -22.0847168 52.99853516 C-23.91302676 46.53275862 -26.31499055 40.95520726 -29.76831055 35.14697266 C-31.07022018 31.48433893 -30.26259228 30.03816993 -28.7097168 26.49853516 C-26.85994953 24.25942761 -25.05382735 22.25749392 -23.00268555 20.22509766 C-22.15907219 19.37218643 -22.15907219 19.37218643 -21.29841614 18.50204468 C-20.11231413 17.30886769 -18.92109477 16.1207583 -17.72509766 14.9375 C-15.89748996 13.12380624 -14.09522047 11.28732137 -12.29370117 9.44775391 C-11.13564762 8.28874954 -9.97618887 7.13114716 -8.81518555 5.97509766 C-8.27854782 5.42520172 -7.7419101 4.87530579 -7.18901062 4.30874634 C-4.85145296 2.02821905 -3.25649223 0.59913119 0 0 Z " fill="#677DD0" transform="translate(226.709716796875,67.50146484375)"/>
<path d="M0 0 C2.625 0.1875 2.625 0.1875 5.625 2.1875 C5.625 2.8475 5.625 3.5075 5.625 4.1875 C6.285 4.1875 6.945 4.1875 7.625 4.1875 C8.98676922 5.83101457 10.31462066 7.50272656 11.625 9.1875 C13.2704378 10.87512851 14.93788577 12.5415349 16.625 14.1875 C17.429375 15.0125 18.23375 15.8375 19.0625 16.6875 C20.92689377 18.50642075 22.72079458 20.0841772 24.75 21.6875 C27.55078289 24.12296338 29.20924206 25.77302497 30.625 29.1875 C30.21639669 33.64499063 28.95417847 36.85160299 26.8125 40.75 C23.97794112 46.18800264 22.11528123 51.57135081 20.484375 57.47265625 C19.625 60.1875 19.625 60.1875 17.625 63.1875 C13.92938546 64.41937151 10.48340275 64.368987 6.6328125 64.390625 C5.84985809 64.39632507 5.06690369 64.40202515 4.26022339 64.40789795 C2.60432279 64.41733845 0.94840349 64.42387816 -0.70751953 64.42773438 C-3.23373366 64.43743752 -5.75913308 64.46846782 -8.28515625 64.5 C-9.89582851 64.50653075 -11.50650658 64.51178094 -13.1171875 64.515625 C-14.2455452 64.5341452 -14.2455452 64.5341452 -15.396698 64.55303955 C-19.89528309 64.53404285 -22.80933248 63.99542019 -26.375 61.1875 C-30.36981696 50.07250928 -21.22359604 32.1507439 -16.5625 22.25 C-6.03003312 0.47605525 -6.03003312 0.47605525 0 0 Z " fill="#5166B8" transform="translate(53.375,67.8125)"/>
<path d="M0 0 C2.26203937 3.39305906 2.58168052 5.62365133 3.25 9.625 C8.68532002 38.85820765 25.72325125 63.42382769 50.0078125 80.390625 C74.14164244 96.57462682 103.85496711 102.61315114 132.453125 97.74609375 C145.97339111 94.90207301 157.95057147 90.80703544 170 84 C170.99644531 83.44441406 171.99289063 82.88882813 173.01953125 82.31640625 C180.57205072 77.81082596 186.70319799 72.06653921 193 66 C193.72058594 65.35417969 194.44117188 64.70835937 195.18359375 64.04296875 C212.47508927 48.07355941 222.09631904 22.88273953 225 0 C225.33 0 225.66 0 226 0 C228.4328811 19.64326225 216.72107697 41.92288817 205 57 C204.00226563 58.31871094 204.00226563 58.31871094 202.984375 59.6640625 C184.3651665 83.4403899 158.57555909 97.38893872 129 102.3125 C97.37519211 106.09728714 66.73576277 97.88605958 41.58886719 78.26464844 C19.60634131 60.76780086 5.63960275 36.45839372 0 9 C-0.25883893 5.89804137 -0.2184374 3.112733 0 0 Z " fill="#07090E" transform="translate(27,152)"/>
<path d="M0 0 C0.99 0.99 0.99 0.99 2 2 C1.94585101 6.72607376 0.42013959 9.15298968 -2.87364197 12.46577454 C-3.6767556 13.23488411 -3.6767556 13.23488411 -4.49609375 14.01953125 C-5.04483658 14.56357101 -5.59357941 15.10761078 -6.15895081 15.6681366 C-7.90706474 17.3949796 -9.67206646 19.10338704 -11.4375 20.8125 C-12.62153136 21.98001677 -13.80448664 23.14862591 -14.98632812 24.31835938 C-24.61646057 33.79753082 -24.61646057 33.79753082 -28.5625 34.375 C-32.67985953 33.92583351 -35.06133761 32.45402319 -38.578125 30.37109375 C-53.56700144 21.88545564 -72.18135568 20.45030822 -88.734375 24.80078125 C-93.51304609 26.55562817 -98.00117883 28.83000684 -102.44604492 31.30664062 C-106.56632315 33.55149988 -109.33248876 34.68046948 -114 34 C-116.41812293 32.14241889 -118.36456209 30.40789977 -120.45703125 28.234375 C-121.33967903 27.34966522 -121.33967903 27.34966522 -122.24015808 26.44708252 C-123.47838025 25.19981488 -124.70932035 23.9452811 -125.93334961 22.68408203 C-127.80774891 20.75488997 -129.70508056 18.85082244 -131.60742188 16.94921875 C-132.80871694 15.73317717 -134.00863514 14.51577357 -135.20703125 13.296875 C-136.05694389 12.44195465 -136.05694389 12.44195465 -136.92402649 11.56976318 C-141.57769173 6.74517891 -141.57769173 6.74517891 -142 3 C-141.34 2.34 -140.68 1.68 -140 1 C-139.77795898 1.70664795 -139.55591797 2.4132959 -139.32714844 3.14135742 C-137.70825192 6.62841763 -135.43922999 9.04667448 -132.765625 11.73828125 C-131.99215729 12.52672676 -131.99215729 12.52672676 -131.20306396 13.33110046 C-130.1142735 14.43502387 -129.02142947 15.53496226 -127.92480469 16.63110352 C-126.25324201 18.30924523 -124.60715028 20.00992036 -122.9609375 21.71289062 C-121.89730861 22.78531935 -120.83225065 23.85633302 -119.765625 24.92578125 C-119.27789612 25.43506668 -118.79016724 25.94435211 -118.28765869 26.46907043 C-115.74808861 28.95914628 -114.33342898 29.96151971 -110.75488281 30.37451172 C-107.92109941 29.98927388 -106.73082079 29.52244518 -104.5 27.8125 C-90.80201893 18.51271014 -72.83088481 17.11271485 -56.79931641 19.30029297 C-48.99998331 20.84442323 -37.75062314 24.24937686 -32 30 C-29.21275712 30.52721394 -29.21275712 30.52721394 -26 30 C-23.72031048 28.29375815 -21.9334908 26.73021302 -19.98046875 24.70703125 C-19.43642899 24.16398849 -18.89238922 23.62094574 -18.3318634 23.06144714 C-17.18771761 21.91263099 -16.05092708 20.7564483 -14.92114258 19.59350586 C-13.19313996 17.81829405 -11.44000755 16.07125697 -9.68164062 14.32617188 C-8.57132323 13.20470035 -7.46254524 12.0817022 -6.35546875 10.95703125 C-5.83260788 10.43599319 -5.30974701 9.91495514 -4.77104187 9.37812805 C-1.88134835 6.37392235 -0.32678393 4.20667939 0 0 Z " fill="#08090F" transform="translate(210,50)"/>
<path d="M0 0 C0.33 0 0.66 0 1 0 C2.84588839 13.7885639 0.61624879 25.73725169 -7.5625 37.1875 C-14.96581 46.23598999 -25.45698562 52.12090464 -37 54 C-49.42611629 55.0207868 -59.79512123 52.04892552 -70 45 C-71.3303125 44.13375 -71.3303125 44.13375 -72.6875 43.25 C-79.5365101 36.58609828 -86.5254651 25.94667373 -87.11352539 16.09887695 C-87.10828857 15.40238037 -87.10305176 14.70588379 -87.09765625 13.98828125 C-87.09443359 13.23095703 -87.09121094 12.47363281 -87.08789062 11.69335938 C-87.07951172 10.90767578 -87.07113281 10.12199219 -87.0625 9.3125 C-87.05798828 8.51521484 -87.05347656 7.71792969 -87.04882812 6.89648438 C-87.0370585 4.93095743 -87.01912348 2.96546915 -87 1 C-86.67 1 -86.34 1 -86 1 C-85.97421875 1.78761719 -85.9484375 2.57523438 -85.921875 3.38671875 C-85.16724404 17.87906323 -81.51655533 30.34628724 -70.5625 40.375 C-60.33753725 48.4413595 -47.85740665 51.47978839 -35 50 C-22.60130364 46.76555747 -12.57156324 39.92144394 -5.74609375 28.9921875 C-0.84982873 19.77781421 -0.50446392 10.1954814 0 0 Z " fill="#06080D" transform="translate(183,131)"/>
<path d="M0 0 C0.69921875 1.59765625 0.69921875 1.59765625 1 4 C-0.29296875 6.99609375 -0.29296875 6.99609375 -2.1875 10.4375 C-5.29042368 16.25422979 -7.4361757 21.97166739 -9.17578125 28.35546875 C-10 31 -10 31 -12 34 C-15.69561454 35.23187151 -19.14159725 35.181487 -22.9921875 35.203125 C-24.16661911 35.21167511 -24.16661911 35.21167511 -25.36477661 35.22039795 C-27.02067721 35.22983845 -28.67659651 35.23637816 -30.33251953 35.24023438 C-32.85873366 35.24993752 -35.38413308 35.28096782 -37.91015625 35.3125 C-39.52082851 35.31903075 -41.13150658 35.32428094 -42.7421875 35.328125 C-43.8705452 35.3466452 -43.8705452 35.3466452 -45.021698 35.36553955 C-49.50950326 35.34658837 -52.46632861 34.84565458 -56 32 C-56.55859375 29.66015625 -56.55859375 29.66015625 -56.4375 27.0625 C-56.41558594 26.20785156 -56.39367187 25.35320312 -56.37109375 24.47265625 C-56 22 -56 22 -54 18 C-54 22.29 -54 26.58 -54 31 C-40.8 31 -27.6 31 -14 31 C-12.20752464 26.81755749 -10.57197373 22.88909074 -9.125 18.625 C-7.51812269 14.13192384 -5.56140388 10.08392062 -3.1484375 5.97265625 C-2.01067167 4.01833059 -0.99100967 2.03202442 0 0 Z " fill="#030305" transform="translate(83,97)"/>
<path d="M0 0 C3.65892752 3.20055638 5.60168666 6.75728554 7.5625 11.125 C7.86623535 11.7864502 8.1699707 12.44790039 8.48291016 13.12939453 C10.5527766 17.73543445 12.2163808 22.34890358 13.4921875 27.2421875 C13.84978528 29.01081106 13.84978528 29.01081106 15 30 C17.87264056 30.10106874 20.72073628 30.13969672 23.59375 30.1328125 C24.45560913 30.13376923 25.31746826 30.13472595 26.20544434 30.13571167 C28.03133212 30.1363935 29.85722231 30.13453904 31.68310547 30.13037109 C34.48801078 30.12502286 37.29275595 30.13031599 40.09765625 30.13671875 C41.86718786 30.13605797 43.63671936 30.13477681 45.40625 30.1328125 C46.25102905 30.13483673 47.09580811 30.13686096 47.96618652 30.13894653 C51.7918686 30.49924511 51.7918686 30.49924511 55 29 C55.23192865 27.48530552 55.41215238 25.96245438 55.5625 24.4375 C55.64628906 23.61121094 55.73007813 22.78492187 55.81640625 21.93359375 C55.90728516 20.97646484 55.90728516 20.97646484 56 20 C56.33 20 56.66 20 57 20 C57.08114106 21.77007714 57.13925505 23.54122098 57.1875 25.3125 C57.23970703 26.79169922 57.23970703 26.79169922 57.29296875 28.30078125 C57 31 57 31 55.72276306 32.64344788 C52.72722863 35.002216 48.97689203 34.44661832 45.31640625 34.43359375 C44.46449203 34.4388356 43.61257782 34.44407745 42.73484802 34.44947815 C40.93351328 34.45590004 39.13213661 34.45455917 37.33081055 34.44604492 C34.57589911 34.43754136 31.82306553 34.46628169 29.06835938 34.49804688 C27.31770895 34.49965916 25.56705486 34.49908083 23.81640625 34.49609375 C22.99338516 34.50732773 22.17036407 34.51856171 21.32240295 34.53013611 C17.56188496 34.4843705 15.6242431 34.45823871 12.52856445 32.18579102 C10.42617623 29.17945309 9.55521117 25.99851966 8.625 22.5 C6.75496501 15.96123821 4.3797022 10.25365596 1.13671875 4.2578125 C0 2 0 2 0 0 Z " fill="#040406" transform="translate(196,98)"/>
<path d="M0 0 C0.33 0 0.66 0 1 0 C2.84588839 13.7885639 0.61624879 25.73725169 -7.5625 37.1875 C-11.67002248 42.20780526 -16.40891247 45.75489559 -22 49 C-22.68707031 49.40476563 -23.37414062 49.80953125 -24.08203125 50.2265625 C-26 51 -26 51 -29 50 C-29.33 49.34 -29.66 48.68 -30 48 C-29.39414063 47.81566406 -28.78828125 47.63132813 -28.1640625 47.44140625 C-17.51593313 43.75551531 -9.05228513 36.10457026 -4 26 C-0.65454209 17.62318413 -0.3486135 8.90767606 0 0 Z " fill="#0A0B12" transform="translate(183,131)"/>
<path d="M0 0 C0.2175293 0.53915039 0.43505859 1.07830078 0.65917969 1.63378906 C2.46583273 4.82207772 4.90193177 7.26629547 7.453125 9.859375 C7.99096619 10.40861633 8.52880737 10.95785767 9.08294678 11.52374268 C10.21994826 12.67958926 11.35984854 13.83259054 12.50244141 14.98291016 C14.24432494 16.74426152 15.96372601 18.52577403 17.68359375 20.30859375 C18.79294404 21.43100041 19.90357967 22.55213844 21.015625 23.671875 C21.52522766 24.20617126 22.03483032 24.74046753 22.55987549 25.29095459 C25.10762009 27.80771915 26.60936414 28.94746251 30.20214844 29.43066406 C33.39613897 28.93902364 35.30257689 27.72335365 38 26 C38.66 26.33 39.32 26.66 40 27 C40 27.66 40 28.32 40 29 C32.63325081 33.71471948 32.63325081 33.71471948 27 33 C24.58187707 31.14241889 22.63543791 29.40789977 20.54296875 27.234375 C19.66032097 26.34966522 19.66032097 26.34966522 18.75984192 25.44708252 C17.52161975 24.19981488 16.29067965 22.9452811 15.06665039 21.68408203 C13.19225109 19.75488997 11.29491944 17.85082244 9.39257812 15.94921875 C8.19128306 14.73317717 6.99136486 13.51577357 5.79296875 12.296875 C4.94305611 11.44195465 4.94305611 11.44195465 4.07597351 10.56976318 C1.40860843 7.80443157 -0.44341289 5.83989285 -1 2 C-0.67 1.34 -0.34 0.68 0 0 Z " fill="#030305" transform="translate(69,51)"/>
<path d="M0 0 C9.9 0 19.8 0 30 0 C25.98732258 4.01267742 20.46917404 3.18318322 15.125 3.1875 C13.93970703 3.20586914 13.93970703 3.20586914 12.73046875 3.22460938 C8.08268452 3.2362095 4.37304627 2.77874711 0 1 C0 0.67 0 0.34 0 0 Z " fill="#010101" transform="translate(125,252)"/>
<path d="M0 0 C-0.33 0.66 -0.66 1.32 -1 2 C-7.9819896 4.32732987 -15.90907448 5.36364184 -23 3 C-23 2.34 -23 1.68 -23 1 C-21.89140625 0.93941406 -20.7828125 0.87882813 -19.640625 0.81640625 C-18.1770718 0.73197049 -16.71353075 0.64732401 -15.25 0.5625 C-14.15558594 0.50352539 -14.15558594 0.50352539 -13.0390625 0.44335938 C-8.94668231 0.22752922 -8.94668231 0.22752922 -4.94433594 -0.58227539 C-3 -1 -3 -1 0 0 Z " fill="#010202" transform="translate(155,181)"/>
<path d="M0 0 C0.703125 1.5859375 0.703125 1.5859375 1 4 C0.00455838 6.32464897 -1.02901649 8.42621642 -2.25 10.625 C-5.24567644 16.27238013 -7.48998369 21.75859927 -9 28 C-9.99 28 -10.98 28 -12 28 C-9.64294841 19.27890913 -6.55021787 11.78737287 -2 4 C-1.32167922 2.67255767 -0.65051015 1.34128997 0 0 Z " fill="#08090E" transform="translate(83,97)"/>
<path d="M0 0 C3.7367353 3.25005234 5.68115837 6.93394751 7.6875 11.375 C8.14866211 12.34566406 8.14866211 12.34566406 8.61914062 13.3359375 C10.40567721 17.21393377 11.50253372 20.71515715 12 25 C11.34 25 10.68 25 10 25 C9.61328125 24.01 9.2265625 23.02 8.828125 22 C5.50960938 13.46926263 5.50960938 13.46926263 1.625 5.1875 C0 2 0 2 0 0 Z " fill="#11131D" transform="translate(196,98)"/>
<path d="M0 0 C2 4 2 4 1.5390625 6.140625 C1.23742187 6.83671875 0.93578125 7.5328125 0.625 8.25 C0.32851562 8.95640625 0.03203125 9.6628125 -0.2734375 10.390625 C-0.51320313 10.92171875 -0.75296875 11.4528125 -1 12 C-1.66 11.67 -2.32 11.34 -3 11 C-2.01 7.37 -1.02 3.74 0 0 Z " fill="#0F1320" transform="translate(74,114)"/>
<path d="M0 0 C3.81300782 3.2870757 5.22972246 6.39727838 7 11 C6.01 11.495 6.01 11.495 5 12 C4.16180842 10.37750059 3.3295884 8.75191503 2.5 7.125 C2.0359375 6.22007813 1.571875 5.31515625 1.09375 4.3828125 C0 2 0 2 0 0 Z " fill="#07080B" transform="translate(196,98)"/>
<path d="M0 0 C-2.57404971 3.86107457 -4.61020259 3.94319692 -9 5 C-7.93411431 2.09303901 -7.29651501 1.15567038 -4.5 -0.3125 C-2 -1 -2 -1 0 0 Z " fill="#040406" transform="translate(188,243)"/>
<path d="M0 0 C0 3 0 3 -1.53125 4.60546875 C-2.1809375 5.12753906 -2.830625 5.64960938 -3.5 6.1875 C-4.1496875 6.71730469 -4.799375 7.24710938 -5.46875 7.79296875 C-5.9740625 8.19128906 -6.479375 8.58960938 -7 9 C-7.66 8.67 -8.32 8.34 -9 8 C-3.85714286 1.42857143 -3.85714286 1.42857143 0 0 Z " fill="#030304" transform="translate(218,222)"/>
</svg>
