<?xml version="1.0" standalone="no"?>
<!DOCTYPE svg PUBLIC "-//W3C//DTD SVG 20010904//EN"
 "http://www.w3.org/TR/2001/REC-SVG-20010904/DTD/svg10.dtd">
<svg version="1.0" xmlns="http://www.w3.org/2000/svg"
 width="1536.000000pt" height="1536.000000pt" viewBox="0 0 1536.000000 1536.000000"
 preserveAspectRatio="xMidYMid meet">

<g transform="translate(0.000000,1536.000000) scale(0.100000,-0.100000)"
fill="#000000" stroke="none">
<path d="M1130 15305 c-8 -2 -49 -9 -90 -15 -478 -78 -873 -471 -971 -965 -12
-59 -14 -1081 -14 -6650 0 -6383 1 -6583 19 -6665 108 -493 489 -859 983 -945
75 -13 874 -15 6623 -15 5854 0 6547 2 6626 15 261 46 462 151 650 339 188
188 293 389 339 650 13 79 15 772 15 6626 0 5749 -2 6548 -15 6623 -85 487
-434 857 -925 980 l-85 22 -6570 1 c-3613 1 -6577 0 -6585 -1z m13115 -700
c165 -44 304 -179 358 -350 l22 -70 0 -6505 c0 -6286 -1 -6507 -18 -6565 -30
-97 -66 -156 -136 -226 -70 -70 -129 -106 -226 -136 -58 -17 -279 -18 -6565
-18 l-6505 0 -70 22 c-171 54 -306 193 -350 358 -13 53 -15 752 -15 6565 0
4452 4 6519 11 6550 39 171 205 339 375 379 23 5 2634 9 6549 10 5819 1 6517
-1 6570 -14z"/>
<path d="M3320 8220 c0 -1925 3 -3500 8 -3500 4 0 743 195 1642 433 l1635 433
3 997 2 997 -90 0 -90 0 0 -928 0 -927 -1462 -387 c-804 -212 -1466 -384
-1470 -382 -4 3 -8 1472 -8 3265 0 2758 2 3259 14 3259 11 0 2839 -745 2909
-766 16 -5 17 -74 17 -1275 l0 -1269 90 0 90 0 0 1340 c0 737 -3 1340 -6 1340
-3 0 -441 115 -972 256 -532 140 -1264 334 -1627 430 -363 96 -666 176 -672
179 -10 3 -13 -700 -13 -3495z"/>
<path d="M10390 11236 l-1635 -433 -3 -974 c-2 -737 1 -979 10 -996 10 -21 19
-23 90 -23 l78 0 0 924 c0 509 3 927 8 929 4 3 657 177 1452 387 795 210 1453
384 1463 386 16 5 17 -155 17 -3260 0 -2463 -3 -3266 -12 -3266 -6 0 -651 169
-1432 376 -782 206 -1438 380 -1458 385 l-38 10 0 1258 0 1258 -82 5 c-46 3
-86 4 -90 1 -5 -2 -8 -602 -8 -1332 l0 -1327 1503 -397 c826 -219 1568 -415
1650 -436 l147 -39 0 3499 c0 2793 -3 3499 -12 3498 -7 0 -749 -195 -1648
-433z"/>
<path d="M3600 10966 c0 -396 1 -425 18 -430 9 -3 283 -53 607 -111 325 -58
600 -107 613 -110 l22 -5 0 -320 c0 -175 -4 -321 -8 -324 -6 -4 -1048 124
-1214 149 -38 5 -38 5 -38 -29 0 -40 -32 -33 320 -76 135 -17 260 -33 278 -36
l32 -6 0 -334 0 -334 -38 0 c-44 0 -460 27 -539 35 l-53 5 0 -34 0 -34 58 -6
c31 -3 440 -31 907 -61 468 -31 856 -58 863 -60 9 -3 12 -78 12 -326 l0 -321
-212 6 c-117 4 -458 11 -758 16 -300 5 -618 12 -707 16 l-163 6 0 -36 0 -36
83 -1 c45 -1 186 -4 312 -8 l230 -6 3 -341 2 -341 -97 -7 c-54 -3 -186 -8
-293 -11 -242 -7 -240 -7 -240 -45 0 -30 0 -30 58 -30 66 0 1488 56 1665 65
l117 7 0 -306 c0 -168 -2 -306 -4 -306 -2 0 -413 -38 -913 -85 -499 -47 -911
-85 -915 -85 -5 0 -8 -16 -8 -35 0 -19 3 -35 8 -35 4 1 284 27 622 59 338 32
618 56 623 54 4 -2 7 -146 7 -319 0 -259 -2 -316 -14 -320 -7 -3 -290 -51
-627 -107 l-614 -103 -3 -32 c-2 -24 1 -32 13 -32 8 0 420 68 915 150 495 83
902 150 905 150 3 0 5 -114 5 -254 0 -194 -3 -255 -12 -258 -7 -3 -421 -105
-920 -228 l-908 -224 0 -33 c0 -18 2 -33 4 -33 6 0 2616 644 2674 659 39 11
42 14 42 45 l0 34 -172 -44 c-95 -24 -174 -44 -175 -44 -2 0 -3 105 -3 234 l0
234 28 6 c15 3 83 15 152 26 181 29 170 25 170 64 l0 33 -437 -73 c-241 -41
-441 -74 -445 -74 -5 0 -8 134 -8 299 l0 299 33 5 c17 3 218 23 445 43 l412
38 0 33 c0 39 12 38 -190 18 -80 -8 -148 -15 -152 -15 -5 0 -8 130 -8 289 l0
288 83 6 c45 4 124 7 175 7 l92 0 0 35 0 35 -72 -1 c-40 0 -369 -12 -731 -27
-362 -15 -660 -25 -663 -23 -2 2 -4 148 -4 323 l0 318 104 0 c69 0 115 5 139
15 31 13 128 15 634 16 329 1 576 5 548 9 -27 5 -107 9 -177 9 l-128 1 0 311
0 312 78 -7 c42 -3 121 -9 175 -12 l97 -7 0 37 c0 31 -3 36 -22 36 -43 -1
-1423 91 -1435 95 -10 3 -13 76 -13 320 0 173 4 315 8 315 5 0 328 -40 718
-90 390 -49 717 -90 727 -90 15 0 18 7 15 33 l-3 32 -440 57 c-242 31 -441 57
-442 57 -7 2 -2 610 5 614 4 2 187 -29 407 -69 220 -40 417 -76 438 -79 37 -7
37 -7 37 27 l0 35 -127 22 c-71 13 -149 27 -175 33 l-48 10 0 269 c0 180 3
269 10 269 6 0 82 -18 170 -40 88 -22 162 -40 165 -40 3 0 5 15 5 33 l0 32
-1341 340 c-738 187 -1350 341 -1360 343 -18 3 -19 -13 -19 -422z m1209 53
c306 -77 573 -145 594 -150 l37 -10 0 -289 c0 -236 -2 -290 -13 -290 -18 0
-1178 209 -1194 215 -10 3 -13 80 -13 335 0 299 2 330 16 330 9 0 267 -63 573
-141z"/>
<path d="M10425 11010 c-731 -185 -1342 -340 -1357 -344 -24 -5 -28 -11 -28
-42 0 -29 3 -34 18 -30 9 3 619 158 1355 344 736 187 1340 342 1343 345 3 3 4
18 2 35 l-3 29 -1330 -337z"/>
<path d="M10392 10316 c-738 -134 -1345 -245 -1348 -248 -3 -4 -4 -19 -2 -35
l3 -29 1265 227 c696 126 1307 236 1358 245 l92 16 0 34 c0 21 -5 34 -12 33
-7 0 -617 -110 -1356 -243z"/>
<path d="M7455 9966 c-78 -35 -120 -145 -82 -212 15 -27 1121 -1141 1164
-1173 65 -48 171 -25 220 49 27 39 31 116 9 158 -23 42 -1157 1170 -1189 1182
-38 14 -85 12 -122 -4z m357 -293 c87 -86 110 -115 114 -143 11 -70 -62 -133
-132 -116 -34 9 -207 176 -228 221 -33 70 17 145 96 145 39 0 47 -6 150 -107z"/>
<path d="M10380 9599 c-723 -92 -1321 -168 -1327 -168 -8 -1 -13 -15 -13 -36
0 -35 1 -36 33 -30 33 5 429 55 440 55 4 0 7 -128 7 -285 0 -220 -3 -287 -12
-290 -7 -2 -103 -11 -213 -18 l-200 -14 377 -2 378 -1 2 222 c3 257 0 250 94
194 l59 -36 5 148 c5 139 6 147 25 147 19 0 20 -8 23 -165 l3 -165 267 -161
c147 -89 269 -158 270 -153 2 5 12 9 23 9 13 0 19 -7 19 -22 0 -19 44 -49 257
-178 287 -173 299 -181 291 -201 -3 -8 -135 -88 -293 -179 -158 -91 -280 -166
-271 -168 14 -3 16 -40 16 -327 0 -178 -4 -326 -8 -329 -28 -17 -32 16 -34
330 l-3 321 -267 -155 -268 -154 0 -159 0 -159 -25 0 -25 0 0 145 0 144 -60
-35 c-99 -58 -95 -68 -98 224 l-2 252 -165 0 -165 0 0 -23 c0 -23 -3 -24 -112
-30 -62 -4 -170 -7 -240 -7 l-128 0 0 -36 0 -36 240 7 240 8 0 -298 0 -297
-147 6 c-82 4 -190 9 -240 12 l-93 6 0 -36 c0 -20 2 -36 5 -36 36 0 2538 -101
2613 -105 l102 -6 0 34 0 34 -117 7 c-65 3 -189 9 -275 12 l-158 7 0 342 0
342 61 7 c34 3 158 6 275 6 l214 0 0 37 0 36 -275 -6 -275 -5 0 352 0 353 168
12 c92 6 215 14 275 18 l107 6 0 34 c0 40 21 38 -260 18 -113 -8 -224 -15
-247 -15 l-43 0 0 334 c0 184 3 337 8 340 4 2 128 19 275 37 l267 33 0 33 c0
31 -2 33 -32 32 -18 -1 -625 -77 -1348 -170z m260 -359 c0 -313 0 -320 -20
-320 -20 0 -20 7 -20 320 0 313 0 320 20 320 20 0 20 -7 20 -320z"/>
<path d="M7180 9490 c0 -79 0 -80 25 -80 20 0 25 -5 25 -25 0 -25 1 -25 86
-25 83 0 85 1 82 23 -3 20 -9 22 -85 25 l-83 3 0 79 c0 79 0 80 -25 80 -25 0
-25 -1 -25 -80z"/>
<path d="M7010 9385 c0 -25 1 -25 80 -25 79 0 80 0 80 25 0 25 -1 25 -80 25
-79 0 -80 0 -80 -25z"/>
<path d="M7180 9270 c0 -79 0 -80 25 -80 25 0 25 1 25 80 0 79 0 80 -25 80
-25 0 -25 -1 -25 -80z"/>
<path d="M7460 9130 l0 -80 35 0 c33 0 35 -2 35 -35 0 -33 -2 -35 -35 -35
l-35 0 0 -80 0 -80 35 0 35 0 0 80 0 80 80 0 80 0 0 35 0 35 -80 0 -80 0 0 80
0 80 -35 0 -35 0 0 -80z"/>
<path d="M9900 8975 l0 -215 -550 0 -550 0 0 -45 c0 -78 -49 -148 -119 -170
-35 -11 -107 -8 -133 6 -13 6 -68 56 -124 110 l-100 100 -505 -3 -504 -3 -63
-34 c-103 -56 -142 -130 -128 -243 8 -65 66 -192 126 -275 31 -43 37 -59 29
-70 -10 -11 -197 -13 -1078 -13 -1010 0 -1068 -1 -1106 -19 -56 -25 -111 -90
-129 -152 -20 -65 -20 -102 -2 -162 20 -68 53 -107 111 -133 l52 -24 1404 2
1404 3 46 23 c64 31 83 69 77 154 -3 54 -13 84 -51 161 -26 53 -74 132 -108
177 -36 50 -58 88 -55 97 6 13 120 14 1014 8 554 -3 1015 -9 1025 -11 16 -5
17 -25 17 -246 0 -191 3 -239 13 -235 7 2 281 160 609 349 l597 345 -605 367
c-332 201 -606 366 -609 366 -3 0 -5 -97 -5 -215z"/>
<path d="M6930 8975 l0 -75 40 0 40 0 0 75 0 75 -40 0 -40 0 0 -75z"/>
<path d="M7300 9015 l0 -35 75 0 75 0 0 35 0 35 -75 0 -75 0 0 -35z"/>
<path d="M6780 8855 l0 -45 70 0 70 0 0 45 0 45 -70 0 -70 0 0 -45z"/>
<path d="M7020 8855 l0 -45 70 0 70 0 0 45 0 45 -70 0 -70 0 0 -45z"/>
<path d="M6930 8735 l0 -75 40 0 40 0 0 75 0 75 -40 0 -40 0 0 -75z"/>
<path d="M6870 8495 l0 -85 85 0 85 0 0 85 0 85 -85 0 -85 0 0 -85z"/>
<path d="M9040 6847 c0 -34 0 -35 53 -41 80 -10 2625 -246 2647 -246 16 0 20
7 20 33 l0 32 -1333 124 c-732 68 -1344 126 -1359 128 -26 5 -28 3 -28 -30z"/>
<path d="M9040 6237 l0 -32 1343 -223 c738 -123 1350 -226 1360 -228 14 -4 17
1 17 30 0 30 -4 35 -27 40 -45 9 -2672 446 -2683 446 -5 0 -10 -15 -10 -33z"/>
<path d="M9040 5728 l0 -33 1353 -333 c743 -183 1356 -333 1360 -332 5 0 7 14
5 32 l-3 32 -1345 333 c-740 182 -1351 332 -1357 332 -8 1 -13 -12 -13 -31z"/>
<path d="M3013 3486 c-68 -22 -128 -62 -177 -118 l-46 -53 0 83 0 82 -75 0
-75 0 0 -660 0 -660 85 0 85 0 0 253 0 253 53 -51 c177 -172 499 -97 612 141
53 112 69 272 40 407 -28 133 -116 252 -225 304 -67 32 -208 42 -277 19z m184
-144 c64 -33 120 -104 144 -185 18 -57 21 -87 17 -170 -6 -125 -37 -205 -104
-266 -136 -126 -367 -68 -429 109 -20 57 -20 268 0 336 48 163 229 248 372
176z"/>
<path d="M4019 3486 c-185 -53 -304 -197 -331 -398 -45 -334 176 -592 483
-564 261 24 422 210 423 491 1 223 -101 387 -284 460 -59 23 -227 30 -291 11z
m238 -137 c183 -88 224 -440 72 -614 -70 -79 -201 -109 -295 -66 -222 101
-247 516 -40 664 69 49 180 56 263 16z"/>
<path d="M6448 3481 c-74 -24 -115 -50 -171 -110 -89 -95 -131 -212 -131 -371
-1 -81 4 -121 21 -175 44 -139 150 -243 287 -280 112 -30 405 -8 449 35 5 4 3
33 -4 64 -9 41 -16 55 -26 52 -133 -51 -316 -55 -408 -9 -42 21 -103 82 -125
123 -16 33 -40 123 -40 155 0 13 48 15 330 15 l329 0 7 36 c9 49 -10 177 -36
248 -41 109 -126 189 -233 221 -67 20 -179 18 -249 -4z m229 -126 c72 -36 111
-100 128 -212 l7 -43 -251 0 -251 0 0 25 c0 84 94 218 170 242 64 20 141 15
197 -12z"/>
<path d="M7515 3487 c-77 -30 -131 -82 -166 -160 -19 -41 -29 -15 -29 76 l0
77 -76 0 c-65 0 -75 -2 -70 -16 3 -9 6 -220 6 -470 l0 -454 84 0 85 0 3 303
c3 291 4 304 26 352 45 97 114 145 207 145 l55 0 0 80 0 80 -47 -1 c-27 0 -62
-6 -78 -12z"/>
<path d="M8475 3487 c-208 -69 -326 -267 -312 -522 16 -276 196 -461 428 -442
104 9 214 67 249 131 7 14 17 26 22 26 4 0 8 -117 8 -260 l0 -260 80 0 80 0 0
488 c0 268 3 565 7 660 l6 172 -81 0 -82 0 0 -72 c-1 -67 -2 -71 -16 -53 -36
49 -88 95 -132 116 -58 28 -195 36 -257 16z m252 -146 c57 -28 111 -95 129
-159 12 -40 15 -86 12 -185 -4 -155 -23 -212 -92 -275 -51 -47 -102 -66 -177
-66 -147 1 -252 124 -266 311 -14 183 68 347 194 387 61 20 147 15 200 -13z"/>
<path d="M10628 3481 c-74 -24 -115 -50 -171 -110 -89 -95 -130 -212 -131
-371 0 -81 5 -121 21 -175 43 -139 150 -243 287 -280 112 -30 405 -8 449 35 5
4 3 33 -4 64 -9 41 -16 55 -26 52 -113 -44 -281 -53 -372 -22 -107 37 -176
129 -195 259 l-7 47 329 0 c370 0 342 -6 342 78 -1 159 -77 322 -181 387 -86
55 -233 70 -341 36z m229 -126 c74 -37 110 -98 128 -212 l7 -43 -251 0 -251 0
0 25 c0 39 37 127 72 169 69 84 196 110 295 61z"/>
<path d="M11691 3487 c-46 -15 -134 -97 -156 -148 -18 -40 -20 -41 -26 -18 -4
13 -7 54 -8 92 l-1 67 -72 0 -73 0 3 -470 2 -470 85 0 84 0 3 303 c3 291 4
304 26 352 44 96 114 144 210 145 l52 0 0 80 0 80 -47 -1 c-27 -1 -63 -6 -82
-12z"/>
<path d="M4700 3468 c0 -7 62 -218 138 -468 l138 -455 75 -3 76 -3 86 253 c86
252 129 393 142 462 4 20 10 36 14 36 3 0 16 -43 29 -96 13 -52 63 -220 112
-372 l88 -277 77 0 78 0 148 460 c82 253 149 464 149 468 0 4 -37 7 -81 5
l-82 -3 -78 -275 c-44 -151 -89 -320 -101 -375 -12 -55 -25 -104 -28 -108 -4
-5 -15 22 -24 60 -9 37 -60 211 -113 386 l-97 317 -71 0 -71 0 -92 -287 c-50
-159 -103 -332 -118 -385 -15 -54 -29 -97 -30 -95 -3 2 -154 591 -187 725
l-10 42 -84 0 c-60 0 -83 -3 -83 -12z"/>
<path d="M9310 3196 c0 -157 5 -320 11 -363 14 -101 50 -182 105 -233 64 -59
104 -73 209 -74 83 -1 96 2 157 32 42 21 83 51 111 82 l45 49 6 -31 c3 -17 6
-50 6 -74 l0 -44 76 0 77 0 -6 68 c-4 37 -7 248 -7 470 l0 402 -79 0 -79 0 -4
-317 c-3 -305 -4 -320 -25 -359 -26 -49 -74 -99 -115 -120 -48 -25 -131 -29
-181 -10 -54 20 -79 46 -109 111 -22 48 -23 61 -26 373 l-3 322 -85 0 -84 0 0
-284z"/>
<path d="M12101 3033 c98 -246 179 -453 179 -461 0 -7 -13 -39 -30 -71 -41
-83 -126 -171 -202 -211 -35 -18 -65 -35 -67 -36 -2 -2 4 -33 14 -69 20 -76
28 -79 108 -39 123 62 204 148 287 307 60 115 86 178 259 629 77 200 142 371
146 381 6 15 -1 17 -83 17 l-91 0 -122 -370 c-68 -203 -125 -368 -127 -365 -3
3 -18 44 -33 92 -16 49 -75 213 -131 366 l-103 277 -92 0 -91 0 179 -447z"/>
</g>
</svg>
