<?xml version="1.0" encoding="UTF-8"?>
<svg version="1.1" xmlns="http://www.w3.org/2000/svg" width="280" height="280">
<path d="M0 0 C92.4 0 184.8 0 280 0 C280 92.4 280 184.8 280 280 C187.6 280 95.2 280 0 280 C0 187.6 0 95.2 0 0 Z " fill="#070E10" transform="translate(0,0)"/>
<path d="M0 0 C4.80423326 2.21777474 9.53307963 4.55972747 14.24609375 6.96484375 C23.79618454 11.79631781 33.40234486 16.48592225 43.08374023 21.04858398 C43.98938721 21.47727783 44.89503418 21.90597168 45.828125 22.34765625 C46.62323486 22.72164551 47.41834473 23.09563477 48.23754883 23.48095703 C50.30859375 24.52734375 50.30859375 24.52734375 53.30859375 26.52734375 C53.6693573 28.81790161 53.6693573 28.81790161 53.64916992 31.71142578 C53.64894333 32.79239532 53.64871674 33.87336487 53.64848328 34.98709106 C53.63299942 36.15795258 53.61751556 37.32881409 53.6015625 38.53515625 C53.59731766 39.73091278 53.59307281 40.92666931 53.58869934 42.15866089 C53.57186277 45.99011446 53.53420059 49.82104828 53.49609375 53.65234375 C53.48105339 56.24478409 53.46736386 58.83723264 53.45507812 61.4296875 C53.42194293 67.79575123 53.37169405 74.16151037 53.30859375 80.52734375 C41.58984375 86.38671875 41.58984375 86.38671875 39.45326233 87.45498657 C38.01267603 88.1752951 36.57211446 88.89565308 35.13157654 89.61605835 C34.43645462 89.96367218 33.7413327 90.31128601 33.02514648 90.66943359 C32.40534409 90.97940277 31.78554169 91.28937195 31.1469574 91.60873413 C29.21316914 92.57502635 27.27851468 93.53957082 25.34375 94.50390625 C22.55134748 95.89908265 19.76940842 97.31313663 16.9921875 98.73828125 C16.28126953 99.10050781 15.57035156 99.46273437 14.83789062 99.8359375 C13.48896505 100.52362505 12.14241027 101.21599274 10.79882812 101.9140625 C6.58512635 104.05393613 2.97737989 105.19340485 -1.69140625 106.52734375 C-2.02140625 89.03734375 -2.35140625 71.54734375 -2.69140625 53.52734375 C-12.03757254 48.8542606 -21.30397138 44.24656346 -30.81640625 39.96484375 C-39.54266624 36.00394412 -48.1742531 31.92087522 -56.69140625 27.52734375 C-56.69140625 26.86734375 -56.69140625 26.20734375 -56.69140625 25.52734375 C-56.12558838 25.25696289 -55.55977051 24.98658203 -54.97680664 24.70800781 C-43.3574272 19.1549103 -31.74068477 13.59631936 -20.12890625 8.02734375 C-19.07775635 7.52364258 -18.02660645 7.01994141 -16.94360352 6.50097656 C-15.95158936 6.02499023 -14.9595752 5.54900391 -13.9375 5.05859375 C-13.01308105 4.6203125 -12.08866211 4.18203125 -11.13623047 3.73046875 C-9.16313574 2.75948704 -7.24599 1.67530891 -5.3515625 0.55859375 C-2.69140625 -0.47265625 -2.69140625 -0.47265625 0 0 Z " fill="#E3E6EB" transform="translate(141.69140625,60.47265625)"/>
<path d="M0 0 C4.71108313 0.94221663 8.37951151 2.46142412 12.6171875 4.5703125 C13.35139923 4.9296286 14.08561096 5.2889447 14.84207153 5.65914917 C17.18910252 6.80898473 19.5321719 7.9666285 21.875 9.125 C24.18284257 10.26041959 26.49151323 11.39412551 28.80081177 12.52658081 C30.23238532 13.22921583 31.66305664 13.93369443 33.09249878 14.64065552 C40.3445734 18.2122475 47.66786819 21.57833849 55 25 C55 42.82 55 60.64 55 79 C51.11905407 77.70635136 47.84583816 76.55140733 44.25146484 74.78515625 C42.92011002 74.1343811 42.92011002 74.1343811 41.56185913 73.47045898 C40.62105499 73.00583252 39.68025085 72.54120605 38.7109375 72.0625 C37.73009186 71.58176025 36.74924622 71.10102051 35.73867798 70.60571289 C32.61570143 69.0740115 29.49533745 67.53706937 26.375 66 C24.26839762 64.96580264 22.16162853 63.93194477 20.0546875 62.8984375 C6.06693173 56.03346586 6.06693173 56.03346586 0 53 C0 35.51 0 18.02 0 0 Z " fill="#E3E6EB" transform="translate(85,142)"/>
<path d="M0 0 C0.82247424 0.00075944 1.64494847 0.00151888 2.49234617 0.00230134 C3.44062662 -0.00168041 4.38890707 -0.00566215 5.36592329 -0.00976455 C6.41424644 -0.00393922 7.46256959 0.00188611 8.54266012 0.00788796 C9.6483283 0.00617592 10.75399648 0.00446389 11.89316976 0.00269997 C15.63482635 -0.00062816 19.37630657 0.0104654 23.11794698 0.02134621 C25.83152725 0.02306896 28.54510416 0.02178158 31.25868452 0.0206157 C37.80869301 0.01955045 44.35864686 0.0288038 50.9086413 0.04161835 C58.48175191 0.05599237 66.05482948 0.05760642 73.62795675 0.05918801 C93.63162755 0.06969787 113.63528612 0.09761997 133.63894308 0.12339699 C178.31269308 0.16464699 222.98644308 0.20589699 269.01394308 0.24839699 C269.01394308 90.33839699 269.01394308 180.42839699 269.01394308 273.24839699 C268.68394308 273.24839699 268.35394308 273.24839699 268.01394308 273.24839699 C268.01361702 272.41014696 268.01361702 272.41014696 268.01328439 271.55496258 C267.99977297 238.4450408 267.96031369 205.33526389 267.88708745 172.22542201 C267.87832054 168.25122853 267.86977077 164.2770346 267.86135519 160.30284035 C267.85967612 159.51163899 267.85799706 158.72043763 267.85626712 157.90526047 C267.82958629 145.08874299 267.82050126 132.27227024 267.81790165 119.45572785 C267.81484383 106.30794679 267.79291705 93.16029519 267.75341851 80.01257259 C267.7296356 71.89753481 267.72062822 63.78275535 267.73042997 55.6676875 C267.73636658 49.44842582 267.71606987 43.22950331 267.68588293 37.01031792 C267.67761967 34.45652812 267.67793469 31.90269438 267.68734586 29.34890854 C267.69890397 25.86877494 267.67994458 22.3901131 267.65317953 18.91009438 C267.66385279 17.89355729 267.67452604 16.8770202 267.68552274 15.82967895 C267.61814996 11.15193457 267.55616854 8.96381631 264.6614908 5.14454091 C261.18388082 2.65391573 258.7037949 2.12336613 254.53743112 2.12534916 C253.61532494 2.12335812 252.69321876 2.12136707 251.74316996 2.11931568 C250.72858909 2.12222853 249.71400821 2.12514137 248.66868246 2.12814248 C247.59214491 2.12728805 246.51560737 2.12643363 245.40644747 2.12555331 C241.78121124 2.12389967 238.15602078 2.12941803 234.53078878 2.1348716 C231.93924623 2.13515352 229.3477036 2.13499564 226.75616109 2.1344291 C221.16751093 2.13390429 215.57887243 2.13704657 209.9902252 2.14266694 C201.90994189 2.1507878 193.82966422 2.15339776 185.74937727 2.15465493 C172.64021567 2.15684452 159.53106029 2.16350211 146.42190206 2.17295754 C133.68622529 2.18213405 120.95055021 2.18921371 108.21487081 2.19346535 C107.03768331 2.19385944 107.03768331 2.19385944 105.83671425 2.19426148 C101.89971542 2.1955665 97.96271658 2.19683022 94.02571774 2.19807339 C61.35512166 2.20844312 28.6845332 2.22605893 -3.98605692 2.24839699 C-1.98605692 0.24839699 -1.98605692 0.24839699 0 0 Z " fill="#42424E" transform="translate(10.986056923866272,-0.24839699268341064)"/>
<path d="M0 0 C2.97 0 5.94 0 9 0 C8.2575 0.556875 7.515 1.11375 6.75 1.6875 C4.08292005 3.93027178 2.08443768 6.22074975 0 9 C0 6.03 0 3.06 0 0 Z " fill="#020204" transform="translate(0,0)"/>
<path d="M0 0 C0.5775 0.763125 1.155 1.52625 1.75 2.3125 C3.71703093 4.66200917 5.48476744 6.29323505 8 8 C5.36 8 2.72 8 0 8 C0 5.36 0 2.72 0 0 Z " fill="#020202" transform="translate(0,272)"/>
<path d="M0 0 C2.64 0 5.28 0 8 0 C8 2.31 8 4.62 8 7 C2.25 2.25 2.25 2.25 0 0 Z " fill="#000000" transform="translate(272,0)"/>
<path d="M0 0 C0.33 0 0.66 0 1 0 C1 1.65 1 3.3 1 5 C-1.31 5 -3.62 5 -6 5 C-5.195625 4.360625 -4.39125 3.72125 -3.5625 3.0625 C-1.7249496 1.59396498 -1.7249496 1.59396498 0 0 Z " fill="#000000" transform="translate(279,275)"/>
</svg>
