<?xml version="1.0" encoding="UTF-8"?>
<svg id="logosandtypes_com" data-name="logosandtypes com" xmlns="http://www.w3.org/2000/svg" viewBox="0 0 150 150">
  <defs>
    <style>
      .cls-1 {
        fill: #0675c1;
      }

      .cls-2 {
        fill: none;
      }
    </style>
  </defs>
  <path class="cls-2" d="M0,0H150V150H0V0Z"/>
  <path id="logomark" class="cls-1" d="M52.53,72.04v-8.75h85.01V13.91H13.15V80.79H101.91v8.75H13.15v49.07h124.7V71.42H52.53v.63Zm24.06-45.32c3.44,0,6.25,2.81,6.25,6.25s-2.81,6.25-6.25,6.25-6.25-2.81-6.25-6.25c0-3.75,3.13-6.25,6.25-6.25Zm-26.56,18.75h55.32l-2.5,8.75H52.22l-2.19-8.75Zm26.56,80.01c-3.44,0-6.25-2.81-6.25-6.25s2.81-6.25,6.25-6.25,6.25,2.81,6.25,6.25-3.13,6.25-6.25,6.25Zm-26.56-19.06l2.19-8.75h50.63l2.5,8.75H50.03Z"/>
</svg>